<?xml version="1.0" encoding="utf-8"?>
<!-- Generator: Adobe Illustrator 27.2.0, SVG Export Plug-In . SVG Version: 6.00 Build 0)  -->
<svg version="1.1" xmlns="http://www.w3.org/2000/svg" xmlns:xlink="http://www.w3.org/1999/xlink" x="0px" y="0px"
	 viewBox="0 0 288 72" style="enable-background:new 0 0 288 72;" xml:space="preserve">
<style type="text/css">
	.st0{fill:#FBFBFB;}
	.st1{fill:#0D0D0D;}
	.st2{fill:#0E0E0E;}
	.st3{fill:#E9E9E9;}
	.st4{fill:#7C7C7C;}
	.st5{fill:#3E3E3E;}
	.st6{fill:#191919;}
	.st7{fill:#D5D5D5;}
	.st8{fill:#161616;}
	.st9{fill:#EBEBEB;}
	.st10{fill:#535353;}
	.st11{fill:#C8C8C8;}
	.st12{fill:#6A6A6A;}
	.st13{fill:#151515;}
	.st14{fill:#767676;}
	.st15{fill:#1A1A1A;}
	.st16{fill:#B2B2B2;}
	.st17{fill:#5B5B5B;}
	.st18{fill:#D1D1D1;}
	.st19{fill:#2A2A2A;}
	.st20{fill:#F4F4F4;}
	.st21{fill:#595959;}
	.st22{fill:#292929;}
	.st23{fill:#8A8A8A;}
	.st24{fill:#6C6C6C;}
	.st25{fill:#545454;}
	.st26{fill:#4E4E4E;}
	.st27{fill:#A6A6A6;}
	.st28{fill:#AFAFAF;}
	.st29{fill:#898989;}
	.st30{fill:#3D3D3D;}
	.st31{fill:#232323;}
	.st32{fill:#454545;}
	.st33{fill:#979797;}
	.st34{fill:#E4E4E4;}
	.st35{fill:#858585;}
	.st36{fill:#D4D4D4;}
	.st37{fill:#1B1B1B;}
	.st38{fill:#E0E0E0;}
	.st39{fill:#E1E1E1;}
	.st40{fill:#262626;}
	.st41{fill:#8E8E8E;}
	.st42{fill:#737373;}
	.st43{fill:#AEAEAE;}
	.st44{fill:#C4C4C4;}
	.st45{fill:#B6B6B6;}
	.st46{fill:#DCDCDC;}
	.st47{fill:#7F7F7F;}
	.st48{fill:#D2D2D2;}
	.st49{fill:#A8A8A8;}
	.st50{fill:#D3D3D3;}
	.st51{fill:#676767;}
	.st52{fill:#D8D8D8;}
	.st53{fill:#9F9F9F;}
	.st54{fill:#C9C9C9;}
	.st55{fill:#D6D6D6;}
	.st56{fill:#CECECE;}
	.st57{fill:#D9D9D9;}
	.st58{fill:#A2A2A2;}
	.st59{fill:#393939;}
	.st60{fill:#CFCFCF;}
	.st61{fill:#8B8B8B;}
	.st62{fill:#CDCDCD;}
	.st63{fill:#BFBFBF;}
	.st64{fill:#797979;}
	.st65{fill:#C2C2C2;}
	.st66{fill:#B0B0B0;}
	.st67{fill:#DADADA;}
	.st68{fill:#AAAAAA;}
	.st69{fill:#686868;}
	.st70{fill:#A5A5A5;}
	.st71{fill:#999999;}
	.st72{fill:#747474;}
	.st73{fill:#565656;}
	.st74{fill:#B5B5B5;}
	.st75{fill:#909090;}
	.st76{fill:#BBBBBB;}
	.st77{fill:#313131;}
	.st78{fill:#626262;}
	.st79{fill:#A3A3A3;}
	.st80{fill:#ADADAD;}
	.st81{fill:#C3C3C3;}
	.st82{fill:#646464;}
	.st83{fill:#1F1F1F;}
	.st84{fill:#8D8D8D;}
	.st85{fill:#727272;}
	.st86{fill:#9A9A9A;}
	.st87{fill:#818181;}
	.st88{fill:#CBCBCB;}
	.st89{fill:#707070;}
	.st90{fill:#949494;}
	.st91{fill:#B9B9B9;}
	.st92{fill:#787878;}
	.st93{fill:#616161;}
	.st94{fill:#A0A0A0;}
	.st95{fill:#A1A1A1;}
	.st96{fill:#C0C0C0;}
	.st97{fill:#4F4F4F;}
	.st98{fill:#919191;}
	.st99{fill:#A7A7A7;}
	.st100{fill:#777777;}
	.st101{fill:#989898;}
	.st102{fill:#9E9E9E;}
	.st103{fill:#868686;}
	.st104{fill:#A9A9A9;}
	.st105{fill:#8C8C8C;}
	.st106{fill:#848484;}
	.st107{fill:#7E7E7E;}
	.st108{fill:#3B3B3B;}
	.st109{fill:#B8B8B8;}
	.st110{fill:#939393;}
	.st111{fill:#929292;}
	.st112{fill:#B3B3B3;}
	.st113{fill:#888888;}
	.st114{fill:#5A5A5A;}
	.st115{fill:#9C9C9C;}
	.st116{fill:#8F8F8F;}
	.st117{fill:#6E6E6E;}
	.st118{fill:#606060;}
	.st119{fill:#9D9D9D;}
	.st120{fill:#6D6D6D;}
	.st121{fill:#FFFFFF;}
	.st122{fill:#969696;}
	.st123{fill:#828282;}
	.st124{fill:#636363;}
	.st125{fill:#525252;}
	.st126{fill:#7B7B7B;}
	.st127{fill:#3A3A3A;}
	.st128{fill:#5D5D5D;}
	.st129{fill:#959595;}
	.st130{fill:#141414;}
	.st131{fill:#2D2D2D;}
	.st132{fill:#3C3C3C;}
	.st133{fill:#3F3F3F;}
	.st134{fill:#303030;}
	.st135{fill:#F7F7F7;}
	.st136{fill:#B7B7B7;}
	.st137{fill:#0A0A0A;}
	.st138{fill:#343434;}
	.st139{fill:#282828;}
	.st140{fill:#F8F8F8;}
	.st141{fill:#F6F6F6;}
	.st142{fill:#A4A4A4;}
	.st143{fill:#4C4C4C;}
	.st144{fill:#0B0B0B;}
	.st145{fill:#060606;}
	.st146{fill:#505050;}
	.st147{fill:#4A4A4A;}
	.st148{fill:#2F2F2F;}
	.st149{fill:#D7D7D7;}
	.st150{fill:#CACACA;}
</style>
<g id="Слой_1">
	<path d="M105.7,29.6c2-2.1,3.2-4.9,3.2-7.8c0-5.2-3.6-8.7-8.9-8.7c-5.1,0-8.7,2.6-12,8.6l-1.2-0.3c1.7-4.9,2.9-7,5.3-9.1
		c2.9-2.6,6.5-4,10.5-4c7.5,0,12.6,4.4,12.6,11.1c0,4.4-2,7.4-7.5,11.2c3.5,1.5,5,2.5,6.7,4.3c2.3,2.5,3.6,6.2,3.6,10.4
		c0,5.4-2,10.1-5.8,13.4C108.4,61.9,102,64,95.8,64c-5.7,0-9.1-1.8-9.1-4.6c0-1.7,1.2-2.8,3.1-2.8c1.4,0,2.7,0.6,5.1,2
		c3,1.9,4.6,2.5,6.9,2.5c6,0,10.5-5.2,10.5-12c0-5.6-3.1-10.1-8.2-12c-1.9-0.7-3.7-0.9-8.5-0.9l-0.1-1.1
		C101,33.2,103.3,32,105.7,29.6z"/>
	<path d="M148.2,51.7h-26.5V51l20.5-28.6h-10.4c-5.4,0.1-7.1,1.5-7.9,6.2h-1.2l0.9-8h24.7v0.7l-20.3,28.6h12.1
		c5.1-0.2,6.7-1.5,8.1-6.5h1.1L148.2,51.7z"/>
	<path d="M178.8,27.5v24.7H178l-20.8-25.8v18.4c0.1,4.8,0.8,5.8,4.4,6v0.9h-11v-0.9c3.9-0.2,4.5-1,4.6-6V24.1
		c-1.9-2.2-2.5-2.6-4.6-2.6v-0.9h8l18.1,22.7V27.5c-0.1-5-0.8-5.8-4.5-6v-0.9h11v0.9C179.5,21.8,178.9,22.6,178.8,27.5z"/>
	<path d="M203.8,51.7v-0.9c2.5,0,3.3-0.4,3.3-1.6c0-0.7-0.3-1.9-0.9-3.1l-1.9-4.5h-12.3l-2.2,5.5c-0.2,0.6-0.4,1.3-0.4,1.8
		c0,1.4,0.9,1.9,3.2,1.9v0.9h-9.3v-0.9c2.3-0.1,2.8-0.8,5.8-7.7l9.8-23.1h0.9l11.7,26.7c1.6,3.5,2.1,3.9,4.2,4.1v0.9H203.8z
		 M198.1,26.7l-5.4,12.9h10.9L198.1,26.7z"/>
	<path d="M247.9,20.6v0.9c-3.2,0.2-3.9,0.6-7.1,3.7l-8.9,8.8l10.9,11.7c4.3,4.6,4.9,5,7.4,5.1v0.9h-14.3v-0.9c0.6,0,1.1,0,1.3,0
		c1.4,0,2-0.4,2-1c0-1.1-2.5-4.4-6.1-8l-5-4.9l-1.2,1v8.8c0,3.5,0.6,4,4.2,4.2v0.9h-13.3v-0.9c3.7-0.2,4.2-0.8,4.2-4.7V25.7
		c-0.1-3.4-0.6-4-4.2-4.2v-0.9h13.3v0.9c-3.8,0.3-4.3,0.7-4.3,4.2v9.6l8.3-7.6c2.6-2.4,3.7-3.8,3.7-4.8c0-1.1-0.4-1.3-3.2-1.5v-0.9
		H247.9z"/>
	<path d="M272.7,51.7v-0.9c2.5,0,3.3-0.4,3.3-1.6c0-0.7-0.3-1.9-0.9-3.1l-1.9-4.5h-12.3l-2.2,5.5c-0.2,0.6-0.4,1.3-0.4,1.8
		c0,1.4,0.9,1.9,3.2,1.9v0.9h-9.3v-0.9c2.3-0.1,2.8-0.8,5.8-7.7l9.8-23.1h0.9l11.7,26.7c1.6,3.5,2.1,3.9,4.2,4.1v0.9H272.7z
		 M267.1,26.7l-5.4,12.9h10.9L267.1,26.7z"/>
</g>
<g id="Слой_2">
	<path class="st0" d="M71.7,37.1c-0.1-0.2-0.3-0.5-0.2-0.7c0.7-1.4,0.4-3,0.8-4.5c0.1-0.4,0.1-1,0.6-1.1c0.9-0.2,0.7-0.8,0.7-1.4
		c0.9-0.1,1,0.7,1.3,1.3c0.1,0.2,0.1,0.4,0.2,0.6c0,0.2,0.1,0.4,0.2,0.5c0.1,0.1,0.1,0.2,0.2,0.3c0.1,0.1,0.2,0.2,0.2,0.3
		c0,0,0.1,0.1,0.1,0.1c0.1,0.1,0.2,0.3,0.3,0.5c0,0.1,0,0.2,0.1,0.4c0,0.1,0.1,0.2,0.1,0.4c0,0.1,0.1,0.2,0.1,0.4
		c0.1,0.4,0.3,0.7,0.5,1c0,0.1,0.1,0.1,0.1,0.2c0.1,0.1,0.1,0.2,0.2,0.4c0.1,0.2,0.1,0.4,0.1,0.6c0,0.3,0.3,0.6,0.4,0.9
		c0.1,0.1,0.2,0.2,0.2,0.3c0.2,0.4,0.2,0.9,0.3,1.3c0.1,0.3,0.2,0.6,0.3,0.9c0.1,0.6,0.3,1.1,0.4,1.7c0,0.1,0,0.3,0,0.4
		c0.2,0.8,0.5,1.6,0.8,2.4c0.2,0.3,0.4,0.6,0.3,0.9c0,0.1,0,0.3,0,0.4c0,0.5,0.2,1,0.2,1.5c-0.1,0.3-0.3,0.5-0.6,0.6
		c-0.3,0.1-0.6,0.1-0.9,0.2c-0.5,0-0.9-0.3-1.4-0.3c-0.1,0-0.3,0-0.4-0.1c-0.2-0.1-0.5-0.1-0.7-0.2c-0.2-0.1-0.4-0.2-0.6-0.4
		c-0.2-0.1-0.3-0.2-0.5-0.3c-0.1-0.1-0.2-0.1-0.3-0.2c-0.2-0.1-0.4-0.2-0.6-0.4c-0.2-0.4-0.6-0.7-0.9-0.9c-0.1-0.1-0.3-0.3-0.4-0.4
		c-0.1-0.1-0.1-0.2-0.2-0.3c-0.1-0.1-0.2-0.3-0.3-0.5c-0.2-0.3-0.4-0.5-0.6-0.8c-0.1-0.2-0.2-0.4-0.2-0.6c0-0.2,0-0.3,0.1-0.4
		c0.1-0.3,0.2-0.5,0.4-0.8c0.5-0.5,0.4-1,0.2-1.6c-0.2-0.5-0.2-1.1,0-1.7c0.1-0.4,0.4-0.5,0.8-0.5c0.5,0,0.7,0.4,1,0.8
		c0.2,0.2,0.2,0.5,0.2,0.7c0-0.2,0-0.5-0.1-0.7c-0.9-0.8-0.9-1.9-0.8-2.9c0,0,0,0,0,0C73.4,36.4,73,37.2,71.7,37.1z"/>
	<path class="st1" d="M11.7,28.1c0.1-0.1,0.2-0.2,0.3-0.3c0.6-0.4,1.1-0.9,1.5-1.5l0,0c0.9-1.4,2.2-2,3.7-2.2c0.5,0,0.9-0.2,1.4-0.3
		c0.6,0,0.9-0.5,1.5-0.6c0.1,0,0.3-0.1,0.4-0.1c0.2-0.1,0.5-0.2,0.8-0.2c0.1-0.1,0.2-0.1,0.3-0.2c0.6-0.2,0.7-0.9,1.2-1.2
		c0.6-0.3,1.3-0.1,1.9-0.5l0,0c0.1-0.1,0.3-0.1,0.4-0.2c0.6-0.3,1-0.2,1.2,0.4c0,0.1,0,0.3,0,0.4c-0.2,0.4-0.6,0.5-1,0.7
		c-0.2,0.1-0.4,0.3-0.6,0.5c-0.1,0.1-0.2,0.2-0.2,0.3c-0.1,0.1-0.1,0.2-0.2,0.3c0,0-0.1,0.1-0.1,0.1c-0.3,0.3-0.5,0.6-0.7,0.9
		c-0.2,0.3-0.4,0.5-0.6,0.8c-0.2,0.4-0.7,0.6-1.1,0.8c-0.5,0.2-1-0.1-1.5,0.3c-0.4,0-0.7,0-1.1,0.1c-0.1,0-0.2,0.1-0.3,0.1
		c-0.3,0.1-0.4,0.4-0.6,0.6c-0.1,0.2-0.3,0.3-0.4,0.4c-1.2,0.9-2.9,0.6-4,1.5c-0.2,0.1-0.3,0.1-0.5,0.1c-0.7-0.2-1.8,0.5-2.1-0.7
		l0,0C11.3,28.2,11.6,28.3,11.7,28.1z"/>
	<path class="st2" d="M73.8,44.6c0.3,0.3,0.6,0.6,0.9,0.9c0.1,0.2,0.4,0.2,0.6,0.3l0,0c0.2,0.2,0.5,0.1,0.6,0.3
		c0.2,0.1,0.4,0.2,0.6,0.3c0.2,0.2,0.5,0.1,0.6,0.3l0,0c0.5,0.3,1.1,0.2,1.4,0.8c0,0.3,0,0.5-0.3,0.6c-0.8,0-1.5,0.2-2.3-0.1l0,0
		c-0.2-0.2-0.4-0.1-0.6-0.3l0,0c-0.4-0.3-0.8-0.6-1.2-0.9l0,0c-0.1-0.1-0.2-0.2-0.3-0.3l0,0c-0.1-0.1-0.2-0.2-0.2-0.4
		c-0.4-0.5-0.8-0.9-1.3-1.1c-1,0-1.1-0.9-1.5-1.5c-0.2-0.3-0.4-0.6-0.6-0.9c-0.4-0.4-0.4-1-0.6-1.5l0,0c-0.2-0.1-0.1-0.4-0.3-0.6
		c-0.2-0.3-0.4-0.6-0.7-0.9c-0.1-0.1-0.1-0.2-0.2-0.3l0,0c0.7-0.6,0.8-0.6,2.3,0.1l0,0c0.2,0.1,0.1,0.4,0.4,0.5l0,0
		c0.1,0.1,0.2,0.2,0.2,0.4c0,0.1,0,0.2,0.1,0.2c0.1,0.1,0.2,0.2,0.3,0.3l0,0c0.1,0.1,0.2,0.2,0.3,0.2c0.3,0.4,0,0.9,0.3,1.3l0,0
		c0.2,0.1,0.1,0.4,0.4,0.5c0.2,0.2,0.3,0.5,0.5,0.7c0.3,0.1,0.2,0.4,0.3,0.6l0,0C73.7,44.2,73.6,44.5,73.8,44.6z"/>
	<path class="st3" d="M53.9,25.7c-0.6,0.7-1.1,1.4-0.9,2.4c0.1,0.4-0.2,0.8-0.6,1c-0.4,0.2-1.1-0.3-1.1,0.4c0,0.9-0.7,1.7-0.2,2.6
		c0.1,0.2,0.4,0.5,0.1,0.8c-0.3,0.2-0.6,0.1-0.8-0.1c-0.2-0.1-0.3-0.3-0.5-0.4c-0.2-0.2-0.4-0.3-0.7-0.2c-0.3,0.2-0.4,0.4-0.3,0.8
		c0.2,0.6,0.2,1.2,0.2,1.8c-0.1,0.1-0.3,0.1-0.4,0.1c-0.3-0.2-0.4-0.6-0.6-0.9c-0.2-0.4-0.4-0.9-0.5-1.4c-0.1-0.4-0.4-0.8-0.4-1.2
		c0-0.5,0-1,0-1.5c0.2-0.6,0.7-1,1.3-1.1c0.8,0,0.9-0.5,0.9-1c0.2-0.6,0.7-1,1.2-1.3c0.3-0.1,0.5-0.1,0.8-0.2c0.2,0,0.5,0,0.7-0.2
		c0.1-0.1,0.2-0.2,0.3-0.2c0.2-0.2,0.4-0.3,0.7-0.4c0.1,0,0.3,0,0.4,0C53.6,25.4,53.8,25.5,53.9,25.7z"/>
	<path class="st4" d="M50.6,21.8c0.2-0.5,0.3-1,0-1.5c-0.5-0.5-1.1-0.8-1.8-0.9c-0.1,0-0.2,0-0.2-0.1c-0.1-0.1-0.1-0.3-0.1-0.4
		c0.3-0.5,0.8-0.4,1.2-0.5c1.9,0.6,3.7,0.3,5.3-0.8c0.8-0.5,1.8-0.8,2.6-1.3c1-0.1,1.2,0.5,1.2,1.3c-0.5,1-1.7,1.2-2.3,2.1
		c-0.5,0.1-0.8,0.5-1.2,0.8c-0.7,0.6-2,0.8-1.3,2.2c0,0.6-0.3,1-0.8,1.1c-0.6,0.2-1,0.5-1.4,1c-0.9,0.8-1.8,0.6-2.6-0.5
		c0.5-0.6,0.2-1.3,0.2-2C49.7,21.8,50.3,22.1,50.6,21.8z"/>
	<path class="st5" d="M49.7,18.8c-0.3,0.4-0.7,0.3-1.2,0.3c-0.6-0.2-0.8-0.8-1.2-1.2c-0.2-0.2-0.4-0.4-0.6-0.6
		c-0.5-0.7-1.2-1.2-1.8-1.8c-1.1-1.3-2.5-2.4-4-3.2c-0.2-0.2-0.4-0.3-0.6-0.5c-0.2-0.2-0.5-0.4-0.3-0.7c0.2-0.3,0.6-0.2,0.9-0.1
		c0.4,0.2,0.8,0.4,1.2,0.6c0.2,0.3,0.7,0,0.9,0.3c1.7,1.3,3.1,3.1,4.7,4.5c0.4,0.4,0.8,0.9,1.4,1.1c0.9,0.3,1.8,0.2,2.7,0
		c0.3-0.1,0.6-0.2,0.9-0.4c0.2-0.1,0.3-0.1,0.4,0c0.2,1.2-0.6,1.4-1.6,1.4C50.9,18.8,50.3,18.3,49.7,18.8z"/>
	<path class="st6" d="M49.7,18.8c-0.2-0.7,0.3-0.6,0.7-0.6c1,0,2,0.1,2.7-0.9c0.3-0.4,0.9,0,1.2-0.3l0,0c0.3-0.3,0.9,0.1,1.2-0.3
		c0.9-0.3,1.7-0.5,2.4-1.2c1.4-0.3,2.7-0.1,4.1-0.1c0.2,0,0.3,0,0.5,0.1c0.1,1,0,1.2-0.8,1.3c-0.3,0.1-0.8-0.2-1,0.1
		c-0.9,0.8-1.5,0.6-2.3-0.2c-0.2-0.2-0.6-0.1-0.9,0c-0.6,0.6-1.4,0.7-2,1.2c-0.3,0.2-0.7,0.4-0.7,0.7c-0.1,0.8-0.5,0.9-1.1,0.7
		c-0.1,0-0.3-0.1-0.4-0.1c-0.7,0-1.4,0.9-1.8,0.5C50.8,19.1,50.3,19,49.7,18.8z"/>
	<path class="st7" d="M71.7,41c-0.1-0.1-0.1-0.2-0.1-0.3c0.2-0.1,0.6-0.2,0.5-0.4c-0.6-1-0.4-2.1-0.4-3.2c0.7-0.7,1.2-1.5,1.3-2.5
		c0-0.4,0.1-1,0.8-1.1c0.2,0.2,0.5,0.3,0.3,0.6c0,0.6,0,1.3,0,1.9c0,0.8,0,1.5,0.5,2.1c0.2,0.3,0.1,1.3,0.6,0.1
		c0.1-0.3,0.5-0.1,0.8,0.1c0.3,0.2,0.3,0.6,0.1,0.8c-0.6,0.4-0.8,1-0.8,1.7c0,0.2-0.1,0.3-0.3,0.3c-0.2,0-0.4-0.1-0.5-0.3
		c-0.2-0.5-0.5-1.1-0.5-1.7c0-0.3,0-0.7-0.3-1c-0.1-0.1-0.3-0.3-0.5-0.3c-0.3,0-0.4,0.3-0.4,0.5c0,0.7,0,1.4,0,2.1
		c0,0.4,0.1,0.8-0.3,1.1C72.3,41.4,71.9,41.3,71.7,41z"/>
	<path class="st8" d="M32.8,61.7c-0.2-0.1-0.4-0.2-0.6-0.3c-0.1-0.1-0.2-0.2-0.4-0.2l0,0c-0.1-0.2-0.4-0.1-0.5-0.4l0,0
		c-0.2-0.1-0.5-0.1-0.6-0.2c-0.1,0-0.2,0-0.3-0.1c-0.5-0.3-1-0.5-1.6-0.4c-0.1,0-0.3-0.1-0.4-0.2c-0.1-0.3-0.1-0.7,0.2-0.8
		c1-0.4,1.1-1.4,1.4-2.2l0,0c0.1-0.1,0.2-0.2,0.3-0.3l0,0c0.2-0.3,0.7,0,0.9-0.3l0,0c0.1-0.1,0.3-0.1,0.4-0.1
		c0.7,0.2,0.6,0.8,0.6,1.3c0,0.4-0.1,0.8-0.1,1.1c0,0.1,0,0.1,0.1,0.2c0,0,0.1,0.1,0.1,0.1c0.2,0.1,0.3,0.2,0.5,0.3
		c1.1,0.2,2.1,0.7,3.2,0.9c0.7,0.1,1.2,0.4,1.1,1.1c-0.1,0.8-0.7,0.7-1.2,0.7C35,61.8,33.9,62,32.8,61.7z"/>
	<path class="st9" d="M53.6,22.7c-0.4-0.4-1.5-0.2-1.3-0.9c0.2-0.6,0.7-1.3,1.5-1.5c0.4-0.1,0.9-0.1,1.3-0.3c1.5-0.3,1.1,1,1.4,1.6
		c0.1,0.1,0.2,0.1,0.3,0.1c0.5,0,0.9-0.2,1.1-0.8c0.2-0.6,0.7-1.1,1.5-0.7c0.1,0.4,0.7,0.7,0.4,1c-0.8,0.7-0.6,2.2-2,2.3
		c-1.2,0.1-2.4,0.4-3.2,1.5c-0.1-0.1-0.2-0.2-0.3-0.3C54.1,24.1,54.4,23.2,53.6,22.7z"/>
	<path class="st10" d="M28.6,47c-0.2,0.1-0.4,0.2-0.6,0.3c-0.1,0.2-0.3,0.2-0.5,0.1c-0.5-0.4-1-0.2-1.5-0.1
		c-0.8,0.2-1.5,0.8-2.4,0.3c-0.3-0.3,0-0.7-0.3-1l0,0c-0.2-0.2-0.2-0.4-0.1-0.6c0.8-0.4,1.7-0.7,2.6-0.7c0.1,0,0.3,0,0.4,0
		c1.3,0.2,1.8-1.2,2.8-1.5c1.6-0.2,2.9-0.9,3.6-2.5c0.3-0.7,1-0.8,1.7-0.4l0,0c0.1,0.1,0.1,0.2,0.2,0.4c0.5,2.1,0.5,2.3-1.5,3.2
		c-0.4,0.2-0.9,0.4-0.9,1c-0.1,0.1-0.2,0.2-0.2,0.3c-0.2,0.1-0.4,0.2-0.6,0.3C30.3,46.5,29.5,46.9,28.6,47z"/>
	<path class="st11" d="M53.6,22.7c1.4,0.1,1.5,0.4,0.9,2.1c-0.5,0.1-0.9,0.3-1.3,0.5c-1.8,1.4-4.1,0.6-6.1,1.1
		c-0.1,0-0.3-0.1-0.4-0.1c0.3-1,0.2-2.1,0.8-3c0.2-0.4-0.3-0.7-0.3-1.1c-0.1-0.5-0.2-1.2,0.8-0.8c0,0.3,0.2,0.4,0.4,0.6
		c0.1,0.1,0.2,0.2,0.2,0.3c0.2,0.2,0.3,0.4,0.4,0.6c0.1,0.1,0.2,0.2,0.2,0.3c0.2,0.2,0.3,0.4,0.3,0.7c0,0.1,0,0.1,0,0.2
		c0.3,0.5,0.9,0.4,1.3,0.5c0.4,0.1,0.6-0.1,0.6-0.6c0.1-1.1,0.3-1.2,1.4-0.9C53.3,23.3,53.5,23.2,53.6,22.7z"/>
	<path class="st12" d="M79.2,44.3c-0.3-0.9-0.9-1.7-0.9-2.7c0.4-0.5,0.8-0.5,1.2,0c0.2,0.6,0.4,1.1,0.5,1.7c0.1,0.7,0.6,0.9,1.1,1
		c2.1,0.5,2.9,2.4,1.8,4.3c-0.5,0.9-0.9,1.9-1.7,2.6c-0.2,0.1-0.4,0.2-0.5,0c-0.3-0.4,0.1-0.6,0.2-0.9c0.3-1,1.6-1.4,1.5-2.7
		c-0.7-0.2-1.2-1.2-2.1-0.9c-0.2,0-0.4-0.2-0.6-0.3c-0.2-0.4,0-0.9-0.2-1.3l0,0C79.2,45,79.5,44.5,79.2,44.3z"/>
	<path class="st13" d="M15.4,56.9c-0.2,0-0.3,0-0.5-0.1c-0.1,0-0.2-0.1-0.2-0.3c0.1-0.7,0.7-0.5,1.1-0.6c0.1-0.1,0.2-0.1,0.3-0.2
		l0,0c1.1-0.3,2.3-0.4,3.5-0.5c0.7,0.1,1.2-0.5,1.8-0.7c0.1-0.1,0.3-0.1,0.4-0.2c0.1,0,0.3-0.1,0.4-0.1c0.4-0.1,0.7-0.1,0.9,0.3
		c0.4,0.7,0.1,1.6,0.3,2.3c0.2,0.5-0.2,1-0.7,0.9c-1.7-0.1-3.5,0.3-5.1-0.3l0,0c-0.1-0.1-0.2-0.2-0.4-0.2l0,0
		C16.6,56.8,15.9,57.3,15.4,56.9z"/>
	<path class="st14" d="M34.1,41c-0.7,0.2-1.2,0.4-1.1,1.3c0,0.2,0,0.4-0.2,0.5c-1.3,0.4-2.3,1.7-3.9,1.6c0-0.1-0.1-0.1-0.1-0.2
		c0-0.1,0-0.1,0-0.2c0.1-0.4,0.5-0.7,0.7-1c0.2-0.2,0.5-0.4,0.7-0.7c0-0.1-0.1-0.1-0.1-0.2c-0.1-0.2-0.2-0.4-0.4-0.5
		c-1-0.8-2-1.4-3.4-1.3c-0.4,0-1.4,0.2-0.9-0.9c2,0.1,3.9-0.2,5.9-0.2C32.4,39.6,33.4,40.1,34.1,41z"/>
	<path class="st15" d="M23.5,47.6c0.3-0.3,0.5-0.8,1.2-0.7c0.7,0.1,1.5-0.3,2.3-0.4c0.3-0.1,0.7-0.4,0.9,0.1
		c0.2,0.4-0.3,0.5-0.5,0.8c0,0.2-0.2,0.2-0.3,0.3l0,0c-0.6,0.7-1.5,0.7-2.2,1c-0.6,0.3-0.9,0.8-1.1,1.3c-0.7,1.2-1.4,0.5-2.1,0.1
		c-0.6,0-1.1-0.2-1.5-0.6c-0.3-0.2-0.6-0.4-0.4-0.8c0.1-0.4,0.5-0.5,0.8-0.5c0.6,0.1,1.2,0.1,1.8,0.1c0.2,0,0.4-0.1,0.6-0.3
		c0.1-0.1,0.2-0.2,0.3-0.3C23.4,47.6,23.4,47.6,23.5,47.6z"/>
	<path class="st16" d="M18,48.3c-1,0-1.5-0.7-2.1-1.3c-0.3-0.3-0.5-0.4-0.8-0.1c-0.6,0.7-1.6,0.7-2.4,1.3c-0.1,0.1-0.3,0.1-0.4-0.1
		c-0.1-0.1,0-0.3,0.1-0.4c0.3-0.2,0.7-0.5,1-0.7c1.1-0.9,1.2-1.5,0.6-2.7c-0.2-0.3-0.4-0.6-0.5-0.9c-0.2-0.3-0.2-0.7,0.1-1
		c0.3-0.3,0.7-0.3,1-0.1c0.3,0.1,0.5,0.3,0.7,0.5c0.7,0.6,1.2,1.4,2,1.8c0.5,0.3,0.2,0.8,0.6,1.2c-0.1,0.1-0.2,0.2-0.3,0.3
		c-0.6,0.1-0.8-0.4-1.2-0.7c-0.1-0.1-0.3-0.2-0.1-0.1c0.2,0.1-0.2,0,0,0c0.1,0,0.1,0.1,0.2,0.2c0.4,0.6,0.7,1.2,1.3,1.6
		C18.1,47.4,18.4,47.7,18,48.3z"/>
	<path class="st17" d="M31.9,57.8c-0.1-0.5,0.2-1.1-0.3-1.5c-0.1-0.1-0.1-0.2-0.1-0.3c0.2-0.3,0.5-0.4,0.7-0.6l0,0
		c0.3-0.4,0.3-0.9,0.2-1.4c-0.1-0.5,0.2-0.7,0.7-0.5l0,0c0.2,0.2,0.4,0.2,0.7,0.2c1.1,0,1.4,0.6,1.3,1.6c0.1,0.1,0.2,0.2,0.3,0.1
		c0.7,0.6,1.6,1.1,1.9,2c0.1,0.1,0.2,0.2,0.2,0.3l0,0c0.1,0.1,0.2,0.2,0.3,0.3l0,0c0.2,0.1,0.2,0.3,0.3,0.4c0.1,0.1,0.2,0.3,0.3,0.5
		l0,0c0.2,0.4-0.1,0.5-0.3,0.7c-0.4,0.3-0.9,0.6-1.4,0.2c-0.2-0.2-0.2-0.5-0.4-0.8c-0.1-0.1-0.1-0.2-0.2-0.3c-0.4-0.3-0.7-0.6-1-1
		c-0.3-0.6-0.8-0.8-1.4-0.6c-0.4,0.1-0.8,0.3-1.1,0.6c-0.1,0.1-0.3,0.1-0.4,0.1C32.1,58,32,57.9,31.9,57.8z"/>
	<path class="st18" d="M59.4,20.3c-0.8,0.9-1.6,1.8-2.4,2.7c-0.5-0.2-0.5-1-1.2-0.9c-0.2-0.2-0.4-0.5-0.2-0.8c0.5-0.7,0.1-1-0.4-1.3
		c0.2-0.4,0.5-0.7,0.9-0.9c0.5-0.3,1.1-0.3,1.7-0.6c1-0.6,2.1-0.9,3.3-0.4c0,0.1,0.1,0.1,0.1,0.2C60.9,19.2,59.8,19.4,59.4,20.3z"/>
	<path class="st19" d="M31.7,45.5c-0.2,0.1-0.5,0.1-0.7,0.2c-0.2,0-0.4,0.2-0.5-0.1c-0.1-0.3,0.1-0.5,0.3-0.6c0.5-0.3,1-0.6,1.6-0.8
		c1.1-0.4,1.9-0.8,1.6-2.2c0-0.2,0.1-0.5,0.2-0.7c0.2-0.2,0.4-0.1,0.6,0l0,0c0.1,0.1,0.2,0.2,0.4,0.3c0.1,0,0.1,0,0.2,0.1
		c0.3,0.2,0.6,0.4,0.9,0.5c0.2,0.1,0.4,0.3,0.7,0.3c0.1,0,0.3,0,0.4,0.1c0.4,0.1,0.9,0.1,0.9,0.7c-0.1,0.4-0.3,0.8-0.6,1.1
		c-0.9,0.2-1.8-0.9-2.6,0.1c-0.1,0-0.2,0.1-0.3,0.2c-0.1,0.1-0.2,0.1-0.3,0.2c-0.2,0.1-0.3,0.1-0.5,0.2l0,0
		c-0.2,0.2-0.4,0.1-0.6,0.3l0,0C32.7,45.5,32.3,45.9,31.7,45.5z"/>
	<path class="st20" d="M31,41.6c0.1,0,0.2,0,0.3,0.1c0.4,0.5,0.1,0.7-0.3,0.8c-0.7,0.2-1.2,0.6-1.7,1.1c-0.2,0.2-0.4,0.3-0.6,0.4
		c-0.8,0.3-1.6,0.4-2.4,0.5c-0.5,0.1-1,0-1.2-0.5c0-0.2,0-0.4,0-0.6c0.2-0.6,0.2-1.2,0.7-1.7c0.3-0.2,0.5-0.5,0.8-0.5
		C28.1,41.1,29.6,41.1,31,41.6z"/>
	<path class="st21" d="M61.4,58.1c-0.2,0.2-0.4,0.4-0.6,0.6c-1.4,0.6-2.9,0.4-4.3,0.3c-0.2,0-0.3-0.2-0.4-0.4
		c-0.2-0.4-0.4-0.9-0.1-1.4c0.1-0.1,0.2-0.2,0.3-0.3c0.2-0.1,0.4-0.1,0.6-0.2c0.1,0,0.3,0,0.4,0c0.3,0.1,0.6-0.1,0.8-0.1
		c0.5,0.1,1-0.2,1.5,0.2l0,0c0.7,0.4,1.3-0.1,1.9-0.2c0.3,0,0.8-0.2,0.9,0.3c0.2,0.6-0.4,0.5-0.7,0.8l0,0
		C61.7,57.9,61.6,58,61.4,58.1z"/>
	<path class="st22" d="M35,26.3c0.1,0,0.2,0,0.3,0c0.2,0.2,0.7,0.1,0.7,0.5c-0.3,1.5-1.5,0.7-2.3,0.9c-0.3,0-0.5-0.3-0.8-0.4l0,0
		c-0.4-0.5-1-0.3-1.5-0.6l0,0c-0.1-0.2-0.4-0.2-0.6-0.3l0,0c-0.1-0.2-0.4-0.1-0.6-0.4l0,0c-0.4-0.5-0.9-0.9-1.3-1.4h0
		c-0.3-0.6-0.1-1,0.6-0.9l0,0c0.3,0.3,0.6,0.4,0.9,0.6l0,0c0.2,0.2,0.5,0.1,0.6,0.3l0,0c0.1,0,0.2,0.2,0.4,0.2l0,0
		c0.1,0.2,0.4,0.1,0.6,0.4l0,0c0.2,0.1,0.5,0.1,0.6,0.3l0,0c0.2,0.2,0.5,0.1,0.6,0.3l0,0C33.7,26,34.3,26.1,35,26.3z"/>
	<path class="st23" d="M37,59.6c0.4,0.3,0.8-0.1,1.2,0c0.1,0.1,0.1,0.1,0.1,0.2c0,0.1-0.1,0.1-0.1,0.1v0c-0.7,1.4,1,0.9,1.2,1.5l0,0
		c0.2,0.2,0.4,0.2,0.6,0c0.1,0,0.2,0,0.3,0c0.8,0.3,1.6,0,2.4,0.3l0,0c0.1,0.1,0.2,0.2,0.2,0.3c0,0.3-0.2,0.4-0.4,0.5
		c-1.4,0.1-2.7,0-4.1-0.4c-1.2-0.4-2.6-0.1-3.9-0.1c-0.6,0-1.2,0.2-1.7-0.3c1.1,0,2.2,0,3.3,0c0.3,0,0.8,0.1,0.8-0.4
		c0.1-0.5-0.1-0.9-0.7-0.8c-0.1,0-0.2,0-0.3,0c-0.4-0.2-0.8-0.4-0.6-1c0.1-0.1,0.1-0.3,0.3-0.4c0.1-0.1,0.3-0.1,0.4-0.1
		C36.3,59.1,36.7,59.4,37,59.6z"/>
	<path class="st24" d="M17.5,57.5c0.4,0,0.8,0.1,1.2,0c0.3,0,1.4,0.3,0.5-0.7c-0.2-0.2,0-0.5,0.3-0.5c0.4,0,1.1-0.6,1.2,0.2
		c0.1,1.2,0.9,1,1.6,0.9c0.8-0.1,0.6-0.8,0.6-1.3c0-0.5,0-1.1-0.1-1.6c-0.1-0.1-0.1-0.2,0-0.4c0.1-0.1,0.2-0.1,0.4,0
		c0,0.1,0,0.2,0,0.3c0.3,0.6-0.1,1.2,0.3,1.8c0.3,0.2,0.6,0.4,0.9,0.6c0.5,0.3,1,0.5,1.5,0.9l0,0c0.2,0.2,0.4,0.1,0.6,0.3l0,0
		c0.2,0.1,0.4,0.2,0.4,0.4c0,0.1-0.1,0.3-0.2,0.3c-0.4,0.2-0.9-0.1-1.4,0.2c-0.1,0-0.3,0-0.3-0.1c-0.3-0.2-0.6-0.4-0.9-0.6
		C23.7,58,23.1,58,22.5,58c-1.5,0-2.9,0.1-4.4-0.1C17.9,57.8,17.6,57.7,17.5,57.5z"/>
	<path class="st25" d="M79.6,41.6c-0.4,0.5-0.8,0.5-1.2,0l0,0c-0.2-0.6-0.3-1.2-0.6-1.8c-0.1-0.3-0.2-0.6-0.3-0.9
		c-0.4-0.4,0.1-1.1-0.3-1.5l0,0c-0.3-0.4,0-0.8-0.2-1.2c0-0.2,0-0.4-0.1-0.6c-0.1-0.4-0.1-0.7,0.3-0.9c0.5,1.4,1.5,2.6,2.1,3.9
		c0.3,0.5,0.1,1,0.1,1.5c0,0.2,0,0.4,0.2,0.6l0,0C79.7,41,79.7,41.3,79.6,41.6L79.6,41.6z"/>
	<path class="st26" d="M69.6,50.6c-0.7,1.4-1.6,2.8-1.8,4.5c-0.1,0-0.1,0.1-0.2,0.1c-0.1,0-0.3-0.1-0.4-0.2
		c-0.4-0.5,0.1-1.1-0.3-1.6c0-0.1,0-0.3,0-0.4c0.3-0.7,0.9-1.2,0.7-2.1c-0.1-0.5,0.5-0.8,0.7-1.2c0-0.1,0-0.2,0-0.3
		c0.2-0.3-0.1-0.7,0.3-0.9c0,0,0-0.1,0.1-0.1c0.3-0.5,0.6-1.5,1.2-1.2c0.7,0.3,0.1,1.1,0,1.7C69.5,49.4,70,50.1,69.6,50.6z"/>
	<path class="st27" d="M52.6,59.1c-0.7-0.4,0-1.2-0.5-1.6c-0.3-0.4-0.6-1-1.2-0.4c-0.4,0.3-0.8,0.4-1.2,0.1
		c-0.1-0.1-0.2-0.2-0.3-0.3c-0.3-0.6,0.1-1.2-0.3-1.8l0,0c0.1-0.9,0.1-0.9,1.2-0.3c1.4,0.6,2.6,1.8,4.2,1.9c0.5,0,0.6,0.6,0.6,1
		c0,0.1,0,0.1-0.1,0.2c-0.1,0.1-0.2,0.2-0.3,0.3c-0.6,0.3-1.3,0.2-1.8,0.7C52.9,59,52.8,59.1,52.6,59.1z"/>
	<path class="st10" d="M18,48.3c-0.8-0.7-1.7-1.3-2.1-2.4c0.3-0.3,0.6-0.3,0.9,0c0.3,0.3,0.7,0.3,1,0.2c1.2-0.3,2,0,2.3,1.3l0,0
		c0.1,0.2,0.4,0.1,0.6,0.3l0,0c0.1,0.1,0.2,0.2,0.3,0.3l0,0c0.6,0.4,1.3-0.1,1.8,0.3c-0.7,0.6-1.5,0.2-2.3,0.3
		c-0.7,0.1-0.6,0.4-0.4,0.9c-0.4,0-0.7-0.3-0.9-0.6c-0.1-0.2-0.4-0.2-0.6-0.3l0,0C18.5,48.3,18.2,48.4,18,48.3L18,48.3z"/>
	<path class="st28" d="M61.8,57.8c0.1-0.3,0.6-0.3,0.4-0.7c-0.2-0.3-0.5-0.2-0.8-0.1c-0.6,0.2-1.2,0.5-1.8-0.1
		c1.1-0.2,2.1-0.1,3.1-1.2c0.6-0.7,1.9,0,2.7,0.6c0,0,0.1,0,0.1,0c0.4-0.1,0.9-0.6,1.3,0c0.4,0.5,0.2,1-0.2,1.4
		c-0.7,0.3-1.4-0.3-2.1,0.1c-0.1,0-0.1,0-0.2,0c-0.1,0-0.2,0-0.3,0c-0.1,0-0.1,0-0.2,0C63.2,57.9,62.5,57.9,61.8,57.8z"/>
	<path class="st29" d="M17.5,24.5c-1.4,0.5-2.6,1.1-3.9,1.9c0.3-2.4,2.2-3.5,3.8-4.9c0.1,0,0.1,0,0.2,0.1c0.1,0,0.1,0.1,0.2,0.1
		c0,0.1,0.1,0.1,0.1,0.2c0.1,0.2,0.2,0.4,0.2,0.6c0,0.1-0.1,0.3-0.1,0.4c-0.1,0.1-0.1,0.2-0.2,0.3c0,0.1-0.1,0.1-0.1,0.2
		c0,0.1,0,0.2,0,0.3c0.1,0.2,0.1,0.4,0.1,0.5C17.6,24.3,17.6,24.4,17.5,24.5z"/>
	<path class="st30" d="M25.3,39.5c0.7,0.5,1.6,0.3,2.3,0.3c1.1,0,1.8,0.7,2.5,1.5c-0.6,0.4-1.3,0.1-2,0.1c-0.7-0.3-1.3-0.4-2,0
		c-0.4,0.2-0.7,0.2-1.1-0.1c-0.1-0.1-0.1-0.2-0.2-0.3c-0.1-0.1-0.2-0.2-0.3-0.3c-0.3-0.2-0.2-0.6-0.5-0.8c-0.1-0.1-0.2-0.2-0.3-0.3
		c-0.6-0.7-0.6-0.8,0.2-1.1c0.4,0.1,0.7,0.5,1.1,0.8l0,0C25.1,39.3,25.3,39.3,25.3,39.5z"/>
	<path class="st7" d="M50.3,54.8c-0.4,0.1-1-0.6-1.2,0.3c-1.3-0.7-2.5,0.4-3.8,0.3c-0.5,0-1.4,0.6-1.5-0.3c-0.1-0.9,0.9-0.6,1.3-0.8
		c1.1-0.4,2.3-0.5,3.5-0.4C49.4,54,50,54.2,50.3,54.8z"/>
	<path class="st29" d="M23.5,28.4c-0.3,0.3-0.4,0.6,0,1c0.2,0.1,0.2,0.4,0.3,0.6l0,0c0.1,0.1,0.2,0.2,0.3,0.3l0,0
		c0.3,1,0.2,1.1-0.9,0.9l0,0c-0.1-0.1-0.2-0.2-0.3-0.3c-0.7-1.3-1.3-1.6-2.1-0.9c-0.6,0.2-0.9,0.8-1.5,0.8c-0.6-0.2-0.8-0.6-0.5-1
		c0.5-0.8,1.1-1.5,2.2-1.5c0.8,0.1,1.4,0,0.8-1c-0.1-0.1-0.1-0.3-0.1-0.4c0.1-0.2,0.2-0.4,0.4-0.5c0.2-0.1,0.4-0.2,0.6-0.2
		c0.6,0.4,1.9,0,1.5,1.4l0,0c-0.1,0.1-0.2,0.2-0.3,0.3l0,0c-0.1,0.1-0.2,0.2-0.3,0.3l0,0C23.7,28.2,23.6,28.3,23.5,28.4z"/>
	<path class="st27" d="M25,44c1.3,0.3,2.6-0.5,3.9-0.3c0.1,0.1,0.1,0.1,0.1,0.2C29,44,29,44,28.9,44l0,0c-1.1,0.5-1.8,1.4-2.7,2.1
		c-0.1,0-0.2,0-0.3,0c-0.9,0.5-1.8-0.3-2.7,0c0,0.2,0,0.4,0,0.5c-0.5-0.4-0.7-0.8,0.1-1.1C24.1,45.3,24.6,44.7,25,44z"/>
	<path class="st31" d="M9,32.3c-0.1-0.1-0.2-0.2-0.3-0.3c-0.4-0.4-1,0-1.5-0.2c-0.2-0.4-1,0-0.9-0.7l0,0c0.1,0,0.2-0.2,0.3-0.3l0,0
		c0.4-0.3,0.8-0.2,1.3-0.2c0.8-0.1,1.5-0.3,2.3-0.4c0.9,0,1.8-0.4,2.7-0.5c0.2-0.1,0.4-0.1,0.7-0.1c0.2,0,0.4,0,0.7,0.1
		c0.1,0,0.3,0.1,0.4,0.1c0.4,0.1,0.7,0.2,0.8,0.6c-0.1,0.4-0.5,0.2-0.7,0.4l0,0c-0.4,0.2-0.9,0.3-1.2,0.6l0,0
		c-0.1,0.2-0.4,0.1-0.6,0.3c-0.1,0-0.2,0-0.3,0c-0.7,0.4-1.5-0.1-2.1,0.3c-0.2,0.1-0.4,0.2-0.6,0.3C9.7,32.5,9.4,32.5,9,32.3z"/>
	<path class="st32" d="M76.2,50.6c0.5,0.2,0.7,0.7,1,1.2c0.1,0.2,0.4,0.2,0.5,0.3c1,0.6,0.5,1.2,0,1.8c-0.4,0.3-0.7,0.8-1.2,1
		c-0.4,0.1-0.5-0.2-0.5-0.5c0-0.3,0.1-0.7-0.2-1c-0.3-0.5,0.1-1.1-0.3-1.6l0,0C75.6,51.3,74.9,50.5,76.2,50.6z"/>
	<path class="st33" d="M16,33.2c0.3-0.4,0.7-0.8,1-1.3c0.3-0.3,0.8-0.6,0.6-1.1c-0.2-0.6-0.8-0.3-1.3-0.4c-0.1-0.2-0.1-0.3,0-0.5
		c0.8-0.5,1.6-0.7,2.2,0.3c0.3,0.5,0.7,0.4,1.2,0.2c0.9,0.2,0.9,0.6,0.2,1.1l-0.1,0l-0.1,0c-0.5,0.5-1.3,0.7-1.4,1.5
		c0,0.4-0.3,0.5-0.6,0.5c-0.5,0-1.1,0.1-1.6-0.1C15.9,33.4,15.9,33.3,16,33.2z"/>
	<path class="st34" d="M44,60.8c0.4-0.5,0.1-1.3,0.6-1.8c1.1,0.2,0.5-1.1,1.2-1.2c0.4,0.3,0.2,0.8,0.4,1.2c0.2,0.5,0.1,1.1,0.8,1.2
		c0.1,0.1,0.2,0.2,0.2,0.4c0,0.4-0.1,0.7-0.2,1.1c-0.7,0.9-1.6,1-2.6,0.7c-0.1,0-0.3-0.1-0.4-0.2C43.7,61.8,44.2,61.3,44,60.8z"/>
	<path class="st32" d="M22.9,15.8c-0.6,0.2-1.7,0.8-1.8,0.4c-0.2-0.6,1.1-0.6,1.5-1.1c1-0.9,2.4-1,3.5-1.7c0.1-0.1,0.2-0.2,0.4-0.2
		l0,0c0.2-0.2,0.4-0.2,0.6,0c0,0.1,0.1,0.2,0,0.4c-0.1,0.2-0.1,0.4-0.1,0.6c0,0.1-0.1,0.3-0.1,0.4c-0.5,1-1.6,0.5-2.3,1.1l0,0
		C24.2,15.9,23.5,15.4,22.9,15.8z"/>
	<path class="st35" d="M32.5,11c-0.8,0.3-1.7,0.6-2.3,1.3c-0.3,0.2-0.7,0.4-0.9-0.1c-0.2-0.4,0.2-0.5,0.5-0.6c1.4-0.7,2.5-2,4.2-2
		c1.2,0,2.4-0.3,3.6,0.2c-0.1,0.1-0.1,0.2-0.2,0.3c-0.8,0.3-1.7,0-2.5,0.5c-0.1,0-0.3,0-0.4,0C33.9,10.9,33.2,10.7,32.5,11z"/>
	<path class="st11" d="M13.2,56.7c-0.9-0.1-1.6-0.7-2.4-1.2c0.1-0.5,0-1,0.3-1.4c0.1-0.1,0.2-0.2,0.4-0.2c0.6,0.1,1.1,0,1.5-0.4
		c0.2-0.2,0.5-0.1,0.7,0.1c0.2,0.3,0.4,0.6,0.3,0.9c0,0.1-0.1,0.2-0.2,0.2c-1.7,0-0.2,0.6-0.2,1c0,0.1,0,0.2,0,0.3
		c0,0.2,0,0.3-0.1,0.5C13.4,56.6,13.3,56.6,13.2,56.7z"/>
	<path class="st36" d="M50.3,37.1c0.3,0.3,0.3,0.7,0.3,1.1c0,1.8,1.2,3,2.1,4.3c0,0.2-0.1,0.3-0.2,0.4c-0.2,0.3-0.4,0.7-0.9,0.7
		c-1.7-0.7-1.9-2.3-2.2-3.7c-0.1-0.4-0.1-0.8-0.1-1.2C49.4,38,49.5,37.3,50.3,37.1z"/>
	<path class="st37" d="M77.1,34.7c0,0.3,0,0.7-0.3,0.9l0,0c-0.1-0.1-0.2-0.3-0.3-0.4c-0.1-0.1-0.1-0.2-0.2-0.3
		c-0.1-0.1-0.1-0.3-0.2-0.5C76.1,34.3,76,34.2,76,34c0-0.1,0-0.2-0.1-0.2c-0.1-0.1-0.1-0.2-0.2-0.3l0,0c-0.2-0.2-0.4-0.4-0.6-0.6
		l0,0c-0.1-0.1-0.2-0.2-0.3-0.3l0,0c-0.5-0.1-0.4-0.6-0.6-0.9c0-0.2,0-0.4,0-0.6c0.4-1.1,0.4-1.1,1.2-0.6c0.1,0,0.1,0,0.2,0.1
		c0.4,0.2,0.1,0.6,0.4,0.8l0,0c0.3,0.2,0.1,0.6,0.3,0.9c0.4,0.5,0.3,1.2,0.7,1.8C77,34.3,76.9,34.6,77.1,34.7L77.1,34.7z"/>
	<path class="st38" d="M53.6,50.9c-0.5,0.7-1.6,0.9-1.7,2c0,0.1-0.2,0.2-0.3,0.2c-0.2,0-0.4-0.2-0.4-0.4c0-0.9-0.5-1.1-1.3-1.2
		c-1.5-0.3-3-0.2-4.4-0.2c-0.5,0-1.1,0.1-1.6-0.2c0.5-0.8,1.3-0.4,2-0.5c0.6-0.1,1.2-0.1,1.7-0.2c0.2,0,0.5,0,0.7,0
		c1.1-0.2,2.1,0.5,3.2,0.2c0.5-0.2,1-0.2,1.4,0.1C53.3,50.6,53.5,50.7,53.6,50.9z"/>
	<path class="st39" d="M22.9,26.6c-0.2,0-0.4,0-0.6,0c-0.4-0.2-0.6-0.4-0.5-0.8c0.4-0.3,0.2-0.9,0.5-1.2c0.2-0.2,0.4-0.4,0.6-0.6
		c0.4-0.3,1-0.3,1.2-0.9l0,0c0.1-0.1,0.2-0.2,0.3-0.3l0,0c0.1-0.1,0.3-0.2,0.5-0.1c0,0,0.1,0.1,0.1,0.1c-0.4,0.7-0.4,1.4,0,2.1
		C24.6,25.7,24.1,26.5,22.9,26.6z"/>
	<path class="st40" d="M14.4,19c0.6-1.3,1.9-1.3,3-1.7c0.3-0.2,0.7-0.3,0.9,0.1c0.2,0.4-0.3,0.6-0.4,1c-0.1,0.4-0.5,0.5-0.8,0.7l0,0
		c-0.5,0.3-1.1,0.1-1.6,0.6c-0.1,0.1-0.2,0.1-0.3,0.2C15.2,20,15.1,20,15,20.1c-0.1,0.1-0.2,0.2-0.3,0.3c-0.1,0-0.1,0.1-0.2,0.1
		c-0.1,0.1-0.2,0.1-0.3,0.2c-0.1,0-0.3,0-0.4,0c-0.3-0.1-0.4-0.3-0.3-0.6l0,0c0.1-0.1,0.2-0.2,0.3-0.3l0,0c0.1-0.1,0.2-0.2,0.3-0.3
		l0,0C14.3,19.3,14.4,19.2,14.4,19z"/>
	<path class="st41" d="M24.7,20.9c-0.3,0.7-1.1,0.4-1.5,0.9c-0.3,0.5-0.4,1.1-1.2,1.1c-0.4-0.1-0.8-0.2-1.3,0
		c-0.3,0.1-0.7,0.2-1-0.1c-0.6-0.7,0.2-1.2,0.4-1.7c0-0.1,0-0.2,0-0.3c1.1-0.6,2.1-0.8,3.2,0C23.8,21.1,24.2,20.9,24.7,20.9z"/>
	<path class="st42" d="M25,59c0.1,0,0.2,0,0.3,0c0.4-0.5,1,0,1.4-0.3l0.1-0.1c0.9-0.1,1.8-0.4,2.4-1.2c0.3-0.2,0.6-0.4,0.9-0.6
		c0.8,1.6-0.1,2.4-1.4,2.9c-0.1,0.2-0.2,0.2-0.4,0.1c-0.1,0-0.2,0-0.3-0.1c-0.2-0.1-0.5-0.1-0.6-0.2C26.7,59.3,25.7,59.6,25,59z"/>
	<path class="st27" d="M49.4,61.7c2,0.3,2.7-1.1,3.2-2.6c0.1,0,0.1-0.1,0.2-0.1c0.6-0.1,0.8,0.3,1,0.8c0.1,0.3,0.1,0.8,0.4,1
		c0.1,0.1,0.2,0.2,0.2,0.4c-0.2,0.1-0.3,0.3-0.5,0.3c-1.3-0.4-2.1,0.6-3.1,0.9c-0.6-0.3-1.6,0.7-1.9-0.6
		C49.2,61.6,49.3,61.6,49.4,61.7z"/>
	<path class="st38" d="M28.1,24.2c-0.5-0.3-0.9-0.1-1.4,0c-0.3,0-0.7-0.2-0.5-0.5c0.7-1.1-0.5-0.9-0.8-1.2c0,0-0.1-0.1-0.1-0.1
		c0-0.1,0.1-0.2,0.2-0.3c0.3-0.1,0.6-0.3,0.8-0.5l0,0c0.1-0.2,0.2-0.2,0.3,0c0.2,0.7,0.6,0.9,1.3,1c0.5,0,0.8,0.1,1.1,0.5
		C28.7,23.4,28.4,23.9,28.1,24.2z"/>
	<path class="st11" d="M56.3,58.2c0.1,0.1,0.3,0.4,0.4,0.4c1.4,0.1,2.7,0.5,4.1,0.1c-0.1,0.4-0.4,0.7-0.8,0.6
		c-1.4-0.5-2.4,0.4-3.5,0.9c-0.2-0.1-0.4-0.2-0.7-0.3c-0.5-0.1-0.9-0.5-0.8-1C55.3,58.3,55.6,58,56.3,58.2z"/>
	<path class="st43" d="M12.4,38c-0.4-0.1-0.8-0.5-0.4-0.7c1.2-0.6,1.1-1.8,1.5-2.8c0,0,0.1-0.1,0.1-0.1c0.4,0,0.5,0.3,0.6,0.6
		c0,0.9-0.1,1.8,0.5,2.7c0,0.1-0.1,0.2-0.1,0.4c-0.2,0-0.4,0.1-0.6,0.1C13.4,38,12.9,37.7,12.4,38z"/>
	<path class="st44" d="M66.8,20.6c-0.2,0-0.5,0-0.7,0c-1.4-0.1-1.5-0.2-0.9-1.4c0.1-0.3,0.3-0.6,0.4-0.9c0.1-0.3-0.4-0.7,0.2-0.9
		c0.6-0.1,0.8,0.3,0.8,0.8c0.2,0.7,0.3,1.4,0.5,2.1C67,20.5,67,20.6,66.8,20.6z"/>
	<path class="st45" d="M22.9,26.6c0.2-0.5,0.8-0.7,1-1.3c0.1-0.5,0.7-0.5,1.1-0.5c0.6,1.1,0.2,1.9-0.6,2.7c0-0.1-0.1-0.2-0.1-0.3
		C23.6,27.4,23.3,26.9,22.9,26.6z"/>
	<path class="st46" d="M32.5,11c0.6-0.4,1.4-0.3,2.1-0.5c0.6-0.2,1.3-0.4,1.9,0.1c0.1,0.1,0.1,0.3,0,0.4c-0.6,0.1-0.6,0.2-0.4,0.4
		c0.2,0.3,0.4,0.5,0.2,0.8c-0.3,0.3-0.7,0.6-1.2,0.5c-0.4-0.1-0.4-0.4-0.4-0.7c0-0.9-0.5-1.1-1.2-1C33.1,11,32.8,11,32.5,11z"/>
	<path class="st47" d="M36.4,10.8c-0.6-0.2-1.3,0.1-1.8-0.3l0.1-0.1c0.8-0.7,1.9,0.1,2.7-0.6c0.1,0,0.2,0,0.3,0
		c0.5,0.3,1,0.6,1.6,0.6c0.6,0,1.3,0.1,1.8,0.6c-0.9,0.2-0.9,0.2-0.4,0.8c0.1,0.2,0.2,0.3,0.3,0.5c-0.5,0-0.8-0.4-1.2-0.6
		c-0.6-0.3-1.2-0.5-1.8-0.4C37.4,11.2,36.9,11,36.4,10.8z"/>
	<path class="st48" d="M10.9,26.6c-0.3,0.4-0.4,0.9-0.8,1.4c-0.7,0.7,0,0.7,0.5,0.8c0.2,0.4,0.1,0.8-0.1,1.2
		c-0.6,0.5-1.3,0.3-1.9,0.4c-0.4-0.1-0.5-0.4-0.7-0.7c0.8-1,1.6-2,2.4-3C10.5,26.4,10.7,26.4,10.9,26.6z"/>
	<path class="st4" d="M56.3,58.2c-0.8,0.7-0.8,0.7,0,1.3c0.2,0.2,0.3,0.4,0.4,0.7c-0.7,0.4-1.7,0-2.1,0.9c-0.1,0-0.2,0-0.3-0.1
		c-0.5-1.2-0.2-2.2,0.8-3c0.7,0.1,0.4-1.4,1.3-0.9C56.1,57.5,56.2,57.9,56.3,58.2z"/>
	<path class="st49" d="M67.5,19.4c0.9,0.6,1.6,1.5,2.1,2.4c0.3,0.4,0,0.9,0.3,1.2l0,0c0.1,0.1,0.2,0.2,0.3,0.3l0,0
		c0.2,0.4,0.4,0.8-0.3,0.9l0,0c-0.1-0.1-0.2-0.2-0.3-0.3l0,0c-0.2-0.1-0.1-0.4-0.3-0.6l0,0c-0.1-0.1-0.2-0.2-0.3-0.3
		c-0.1-0.6-0.5-1-0.9-1.5C67.5,21,66.9,20.4,67.5,19.4z"/>
	<path class="st50" d="M29.5,37.9c-0.1,0.4-0.3,0.7-0.8,0.6c-0.7-0.1-1.5-1.7-1.2-2.3c0.1-0.1,0.2-0.2,0.4-0.2
		C28.3,36.1,29.5,37.5,29.5,37.9z"/>
	<path class="st51" d="M66.6,57.8c0-0.2,0-0.5-0.1-0.7c0-0.2,0-0.5-0.2-0.5C66,56.4,66,56.8,66,57c-0.1,0.2-0.1,0.5-0.5,0.4
		c-0.2-0.1-0.4-0.3-0.3-0.6c0-0.1,0.1-0.3,0.2-0.4c0.3-0.3,0.3-0.6,0.3-0.9c0-0.6,0.2-1.1,0.5-1.5c0.1,0,0.1,0,0.2,0.1
		c0.5,0.3,0.5,1,1,1.1l0.1,0.1c0.1,0.9,0.6,2-0.6,2.6l-0.1,0L66.6,57.8z"/>
	<path class="st26" d="M75.4,30.5c-0.7-0.4-0.9,0.3-1.2,0.6c0-0.6-0.1-1.2-0.6-1.6c0-0.1,0-0.2,0-0.2c-0.3-0.3-0.2-0.6-0.2-0.9
		c0-0.7,0.4-0.7,0.8-0.3C74.9,28.7,75.2,29.5,75.4,30.5z"/>
	<path class="st52" d="M19.9,31.7c0.2-0.4,0.5-0.8-0.3-0.9c-0.3,0.1-0.4-0.1-0.3-0.3c0.4-0.5,1-0.5,1.5-0.6c-0.2,0.3-0.5,0.6-0.1,1
		c0.5,0.6,1,1.4,1.5,2c0.2,0.2,0.1,0.5-0.1,0.6c-0.2,0.1-0.4,0-0.5-0.2C21.2,32.5,20.5,32.2,19.9,31.7z"/>
	<path class="st53" d="M58.8,48.6c-0.5,0.7-1.2,1.2-2,1.3c-0.8,0.1-1.6,0.4-2.5,0.5c-0.1,0-0.1-0.1-0.2-0.1c-0.1-0.1-0.1-0.3,0-0.4
		c0.5-1.2,1.7-1.2,2.8-1.4c0.5-0.1,1.1-0.2,1.6-0.2C58.6,48.3,58.7,48.4,58.8,48.6z"/>
	<path class="st54" d="M15.9,39.5c0.5,0.4,0.4,0.9,0,1.2c-0.5,0.4-1.1,0.3-1.7,0.1c-0.4-0.2-0.7-0.5-0.7-1c0.4-1,0.4-1,1.2-0.6
		C15.1,39.4,15.5,39.8,15.9,39.5z"/>
	<path class="st55" d="M38.6,18.2c0.6,0.6,0.8,1.4,1.5,2c0.2,0.1,0.2,0.3,0.1,0.5c-0.1,0.2-0.4,0.2-0.5,0.1c-0.9-0.7-2-1.3-2.3-2.6
		C37.8,17.8,38.2,18.6,38.6,18.2z"/>
	<path class="st56" d="M69.9,24.2c0.3-0.2,0.3-0.6,0.3-0.9c0.5,0.4,0.6,0.9,0.6,1.4c0,0.8,0.6,1.4,1,2.1c0.2,0.4,0.6,0.4,1,0.4
		c0.6,0.3,0.6,0.7,0.3,1.2c-0.6-1-1.9-1.2-2.4-2.3C70.5,25.5,69.8,25,69.9,24.2z"/>
	<path class="st57" d="M57,45.8c0.5,0,1,0.8,1.6,0.2c0.5-0.5,1-0.3,1.4,0.2c0.4,0.5,0.4,1-0.1,1.4c-0.4-0.1-0.8,0.1-1.2,0
		c-0.1,0-0.3,0-0.4-0.1c-0.2-0.1-0.4-0.2-0.6-0.2c-0.5-0.2-1-0.5-1-1.1C56.8,46,56.8,45.9,57,45.8z"/>
	<path class="st16" d="M20.2,47.3c-0.8-0.4-1.4-1.2-2.4-1.2c-0.3,0-0.4-0.1-0.3-0.3c0.1,0,0.2,0,0.3,0c0.4-0.1,0.8-0.2,1.2-0.3
		c0.6-0.1,1.1,0,1.5,0.5C21,46.6,20.2,46.8,20.2,47.3z"/>
	<path class="st58" d="M24.7,15.5c0.2-0.5,0.5-1,1.1-0.9c0.4,0,0.7-0.4,1-0.6c0.3,0.1,0.5,0.3,0.7,0.5c0.1,0.1,0.1,0.2,0.1,0.3
		c0,0.1,0.1,0.2,0.1,0.3c0,0.1,0,0.2,0.1,0.3c0.2,0.6-0.1,0.8-0.7,0.7C26.3,15.9,25.5,15.7,24.7,15.5z"/>
	<path class="st59" d="M46.6,61.4c0.1-0.3,0.3-0.6,0.4-0.8c0.3-0.3,0.8-0.3,0.8,0c0,0.7,0.7,1.4,0,2l0,0c-0.1,0.2-0.4,0.1-0.6,0.3
		c-0.4,0-0.8,0-1.2,0c-0.3-0.3-0.2-0.5,0-0.8C46.3,61.9,46.5,61.7,46.6,61.4z"/>
	<path class="st60" d="M80.4,46.4c0-0.1,0-0.3,0-0.4c0-0.2-0.1-0.5,0-0.5c0.3-0.2,0.4,0.1,0.6,0.2c0.6,0.5,1.1,1.2,1.5,2
		c-0.5,0-1,0-1.4,0c-0.3,0-0.6-0.1-0.7-0.4C80.3,46.9,80.2,46.7,80.4,46.4z"/>
	<path class="st57" d="M38.8,47.3c0.2-0.3,0.7-0.2,0.7-0.5c0-0.3-0.3-0.5-0.6-0.6c-0.3-0.1-0.7,0-1-0.3c0-0.2,0.1-0.3,0.3-0.4
		c0.2-0.1,0.4-0.1,0.7-0.2c0.5-0.1,0.9-0.3,1.4-0.1c0.6,0.4,1.3,0.8,0.9,1.6c-0.4,0.8-1.1,1.1-2,0.8C39,47.6,38.9,47.4,38.8,47.3z"
		/>
	<path class="st57" d="M43.7,33.8c0.2-0.4,0.7-0.5,1.1-0.6c0.7-0.1,1.4-0.1,1.9-0.6c0.2-0.1,0.3,0,0.5,0.1c0.1,0.1,0.2,0.3,0.2,0.4
		c0,0.3,0,0.6,0,0.9c0,0.4,0,0.9-0.5,1.2c-0.6,0.3-0.9-0.2-1.2-0.6c-0.3-0.5-0.7-0.5-1.2-0.4C44.2,34.2,43.9,34.2,43.7,33.8z"/>
	<path class="st61" d="M15.1,19.4c0.6-0.7,1.3-0.6,2-0.4c-0.3,0.5-0.7,0.7-1.2,0.9c-0.5,0.3-0.8,0.7-1.3,1c-0.4,0.2-0.7,0.6-1.2,0.2
		c-0.3-0.7,0.3-0.7,0.7-0.9l0,0c0.1-0.1,0.2-0.2,0.3-0.3l0,0c0.1-0.1,0.2-0.2,0.3-0.3l0,0C14.9,19.6,15,19.5,15.1,19.4z"/>
	<path class="st14" d="M67.5,19.4c-0.1,0.8,0.8,1.3,0.7,2.1l0,0c-1.1,0.3-0.8-0.8-1.3-1.2c-0.3-0.1-1-0.1-0.7-0.6
		c0.4-0.5-0.1-1.2,0.4-1.6l0,0c0.1,0.1,0.2,0.2,0.3,0.3l0,0c0.2,0.1,0.1,0.4,0.3,0.6C67.3,19.2,67.4,19.3,67.5,19.4z"/>
	<path class="st62" d="M24.1,39.8c0.2,0.2,0.4,0.4,0.6,0.6c0.1,0.1,0.2,0.2,0.3,0.3l0,0c0.1,0.6,0.8,0.9,1,1.5
		c-0.3,0.4-0.2,1.1-0.9,1.2C24,42.4,24.8,41,24.1,39.8z"/>
	<path class="st63" d="M39.8,15.5c-0.4,0-0.9,0-0.9-0.5c0.1-0.8,0.8-0.7,1.3-0.7c0.3,0,0.9,0,0.8,0.4C41,15.4,40.4,15.5,39.8,15.5z"
		/>
	<path class="st64" d="M47,32.6c-0.1,0-0.2,0-0.3,0c-0.1-1.3,0-2.6-0.7-3.8c-0.1-0.1-0.1-0.3,0-0.4c0.9-0.4,1.2,0.3,1.6,0.8
		c0,0.2,0,0.3-0.1,0.4c0,0.6,0,1.2,0,1.8C47.3,31.7,47.6,32.4,47,32.6z"/>
	<path class="st24" d="M21.7,50c0.8,0.2,1.5,0.4,2.1-0.4c0.1,0,0.2,0.1,0.2,0.3c0,0.4-0.3,0.7-0.4,1l0,0c-0.3,0.5-0.2,1-0.1,1.4
		c0.2,0.6,0,1.1-0.2,1.6l0,0c-0.1,0.1-0.3,0.1-0.4,0.1c-0.4-0.3-0.4-0.7-0.4-1.1c0.1-0.6-0.2-0.9-0.5-1.3c-0.1-0.1,0-0.3,0.1-0.4
		C22.3,50.7,21.9,50.4,21.7,50z"/>
	<path class="st65" d="M29.2,57.5c-0.1,0.2-0.4,0.4-0.3,0.6c0.2,0.9-0.1,1.1-1.3,0.8c-0.2-0.1-0.5-0.2-0.7-0.2
		c-0.1-0.2-0.2-0.4-0.3-0.6C27.5,58.3,28.4,58,29.2,57.5z"/>
	<path class="st50" d="M25.3,39.5c-0.1-0.1-0.2-0.2-0.3-0.3c0.7,0,1.4-0.1,2.1,0c1.1,0,2.2,0.1,3.2-0.4c0.5-0.2,0.9-0.1,1.1,0.4
		c-1.4,0.6-2.8,0.3-4.3,0.3C26.5,39.5,25.9,39.5,25.3,39.5z"/>
	<path class="st66" d="M45.8,57.8c0,0.6,0,1.2-0.1,1.8c-0.1,0.4-0.3,0.8-0.8,0.7c-0.5-0.1-0.3-0.5-0.3-0.9c0-0.1,0-0.3,0-0.4
		c0.3-0.2,0.3-0.6,0.3-0.9c0.1-0.1,0.2-0.2,0.3-0.3l0,0C45.4,57.7,45.6,57.7,45.8,57.8L45.8,57.8z"/>
	<path class="st67" d="M49.7,57.2c0.3-0.1,1,0.1,0.7-0.6c-0.2-0.5,0-0.6,0.4-0.6c0.8,0.1,1.1,0.3,1.3,1.5c-0.4-0.2-0.7-0.3-1.1,0
		C50.5,57.8,50.1,57.7,49.7,57.2z"/>
	<path class="st68" d="M39.8,40.7c-1-0.3-1.9-0.5-2.7-1.2c0.3-0.6,1-0.4,1.5-0.6c0.6,0.4,0.9,1.2,1.8,0.9
		C40.6,40.4,40.3,40.6,39.8,40.7z"/>
	<path class="st69" d="M11.5,54.2c-0.1,0.5,0.2,1.1-0.6,1.2c-0.2-0.1-0.4-0.2-0.6-0.4c-0.1-0.1-0.2-0.2-0.3-0.3
		c0-0.1-0.1-0.2-0.1-0.2c-0.1-0.1-0.1-0.2-0.2-0.4c0-0.1,0-0.2-0.1-0.3c-0.1-0.1-0.1-0.1-0.1-0.2c0-0.1,0.1-0.1,0.1-0.1l0,0
		C10.7,52.5,10.9,53.8,11.5,54.2z"/>
	<path class="st70" d="M68.4,49.7c-0.1,0.7-0.8,1.3-0.5,2.2c0.1,0.4-0.3,1-0.8,1.3c-0.2,0.2-0.3,0.2-0.5,0.1c0-0.3,0-0.6,0.2-0.8
		c0.4-0.5,0.7-1,0.8-1.7C67.6,50.3,67.9,49.9,68.4,49.7z"/>
	<path class="st52" d="M35.8,48.2c-0.2-0.2-0.4-0.5-0.5-0.7c-0.1-0.2-0.3-0.4,0-0.6c0.2-0.1,0.4-0.2,0.6,0c0.9,1,2,0.3,3,0.5l0,0
		c0.1,0.2,0,0.3,0,0.4c-0.9,0.5-1.8,0.7-2.9,0.6C35.9,48.3,35.9,48.2,35.8,48.2z"/>
	<path class="st71" d="M38.3,45.8c-0.1,0-0.2,0-0.4,0.1c-1.2-1.1-2.7-1.2-4.2-0.9c0.1-0.1,0.2-0.2,0.3-0.3c0.1-0.1,0.2-0.2,0.3-0.3
		l0,0c1.8-0.7,3.2-0.4,4,0.9C38.4,45.5,38.4,45.6,38.3,45.8z"/>
	<path class="st72" d="M77.7,53.9c0.3-0.7,0.2-1.2-0.3-1.8c0.5-0.2,1-0.2,1.5,0l0,0c0.3,0.4,1.1-0.3,1.2,0.6
		C79.3,53.1,78.4,53.2,77.7,53.9z"/>
	<path class="st73" d="M38.6,38.9c-0.2,0.9-1,0.6-1.5,0.6c-0.3-0.3-0.6-0.6-0.9-0.9c-0.2-0.2-0.5-0.5-0.3-0.8c0.1-0.2,0.4-0.2,0.6,0
		l0,0c0.2,0.1,0.3,0.1,0.5,0.3c0.3,0.5,0.9,0.3,1.3,0.6l0,0C38.4,38.7,38.5,38.8,38.6,38.9L38.6,38.9z"/>
	<path class="st74" d="M11.5,54.2c-0.4,0-0.6-0.2-0.8-0.5c-0.3-0.5-0.6-0.3-1-0.1c0.2-0.5-0.6-1.3,0-1.6c0.5-0.3,0.5,0.8,0.9,0.9
		c0.4,0.1,0.8,0.4,0.9,0.9C11.5,54,11.5,54.1,11.5,54.2z"/>
	<path class="st75" d="M15.9,39.5c0,0.3,0.2,0.8-0.4,0.6c-0.3-0.1-0.5-0.3-0.7-0.5c-0.5-0.5-0.9-0.2-1.2,0.2l0,0
		c-0.1-0.1-0.2-0.2-0.3-0.3l0,0c-0.3-0.1-0.5-0.3-0.3-0.6c0-0.1,0.1-0.2,0.1-0.3c0.3-0.3,0.7-0.3,1.1-0.2c0.1,0,0.2,0,0.4,0
		c0.1,0,0.2,0,0.4,0.1C15.2,38.9,15.6,39.2,15.9,39.5z"/>
	<path class="st76" d="M13.6,21.2c0.9-0.3,1.5-1,2.4-1.2c-0.4,0.6-0.9,1.1-1.4,1.5c-0.7,0.6-1.4,0.4-1.9-0.3
		C13,21,13.3,21,13.6,21.2z"/>
	<path class="st77" d="M14.4,38.7c-0.5,0.5-1,0.2-1.4-0.1c0-0.1-0.1-0.1-0.1-0.2c-0.1-0.3-0.4-0.2-0.5-0.4l0,0
		c0.4-1.2,1.1-0.5,1.8-0.3C14.4,38,14.3,38.3,14.4,38.7z"/>
	<path class="st27" d="M62.3,15.2c0.8-0.1,1.6,0.2,2.3,0.4c0.3,0.1,0.5,0.4,0.3,0.7c-0.1,0.2-0.4,0.2-0.5,0c-0.6-0.5-1,0-1.4,0.3
		c-0.1,0-0.1,0-0.2-0.1c-0.4-0.3,0-0.9-0.5-1.2l0,0C62.1,15.4,62.1,15.3,62.3,15.2z"/>
	<path class="st78" d="M26.5,21.5c-0.1,0-0.2,0-0.3,0c-0.1-0.7-0.7-0.6-1.2-0.6c-0.1-0.1-0.1-0.1-0.1-0.2c0-0.1,0-0.1,0.1-0.1l0,0
		c0.3-0.6,0.3-1.7,1.5-1.1C26.8,20.1,26.4,20.8,26.5,21.5z"/>
	<path class="st70" d="M42.2,38.6c0,0,0.1-0.1,0.1-0.1c1.5-0.5,1.5-0.5,0.4-1.6c0.1-0.1,0.1-0.3,0.2-0.4c0.8-0.4,1.4,0.2,2.2,0.3
		c0.1,0.1,0.2,0.2,0.3,0.4c0.1,1.1-0.8,1.4-1.6,1.8C43.2,39,42.6,39.2,42.2,38.6z"/>
	<path class="st52" d="M16,33.5c0.4,0,0.8,0,1.2,0c0.5,0,0.9,0,0.7-0.7c-0.1-0.2,0.1-0.5,0.3-0.4c0.7,0.2,0.6-1.1,1.4-0.6
		c-0.3,0.7-1.1,1-1.4,1.8c-0.1,0.3-0.5,0.3-0.8,0.3c-0.6,0-1.2,0-1.8,0C15.6,33.5,15.7,33.4,16,33.5z"/>
	<path class="st74" d="M47.9,50.6c-0.6,0.5-1.3,0.2-2,0.3C45.3,51,44.6,51,44,51c-0.8-0.1-1.6,0.1-2.4-0.4c-0.1-0.1-0.1-0.3,0-0.5
		c0.2-0.2,0.4-0.3,0.6-0.4c0.2-0.1,0.3-0.1,0.5-0.1C44.5,49.7,46.3,49.8,47.9,50.6z"/>
	<path class="st11" d="M18.1,57.9c1.6,0,3.2,0,4.9,0c0.5,0,1-0.1,1.2,0.6c-1.4-0.4-2.9-0.2-4.3-0.3C19.2,58.1,18.6,58.3,18.1,57.9z"
		/>
	<path class="st79" d="M19.9,55.4c-1.3,0-2.6,0.5-3.9,0.3c0.8-1,1.9-0.4,2.9-0.6c0.6-0.1,1.1-0.2,1.6-0.7c0.1,0.1,0.2,0.2,0.2,0.3
		C20.6,55.2,20.4,55.6,19.9,55.4z"/>
	<path class="st27" d="M56.3,57.2c-0.3,0-0.5,0.1-0.6,0.4c-0.1,0.3-0.3,0.5-0.7,0.5c0,0-0.1-0.1-0.1-0.1c0,0,0.1-0.1,0.1-0.1
		l0.1-0.1c0.3-0.9,0.9-1.2,1.8-1.1c0.9,0.1,1.9-0.3,2.7,0.3c-0.6,0-1.2,0-1.8,0c-0.2,0.1-0.4,0.1-0.6,0c-0.1,0-0.2,0-0.3,0
		c-0.1,0.1-0.2,0.2-0.3,0.2C56.5,57.2,56.4,57.2,56.3,57.2z"/>
	<path class="st80" d="M47.9,62.6c-0.1-0.6-0.2-1.1-0.2-1.7c0-0.5-0.4-0.3-0.6-0.3c0-0.1,0-0.2,0-0.4c0.5,0,1.1-0.1,1.2,0.6
		c0.1,0.7,0.9,0.4,1.2,0.9c-0.1,0-0.2,0-0.4,0c-0.2,0.3-0.1,0.7-0.5,0.9C48.3,62.6,48.1,62.6,47.9,62.6z"/>
	<path class="st81" d="M80.1,52.7c-0.2-0.5-0.9-0.2-1.2-0.6c0.7,0,1.3-0.3,1.5-1c0.1-0.3,0.3-0.6,0.6-0.8c0.1,0.3-0.5,0.8,0.3,0.9
		C80.9,51.7,80.7,52.4,80.1,52.7z"/>
	<path class="st36" d="M53.4,37.1c0,0,0,0.1,0,0.1c-0.2,0.4-1.3,1-1.8,0.9c-0.1,0-0.3-0.2-0.3-0.3c0-0.1,0.1-0.3,0.2-0.4
		c0.5-0.4,1.1-0.3,1.7-0.5C53.3,36.9,53.4,37,53.4,37.1z"/>
	<path class="st71" d="M73.2,28.4c0.1-0.5,0-0.9-0.3-1.2c0-0.4,0-0.8,0-1.2c0.1-0.1,0.2-0.1,0.3,0c0.3,0.7,0.6,1.4,1,2
		c-0.5-0.2-0.7,0-0.7,0.5c0,0.2,0,0.5,0.1,0.7C73.2,29.1,73.2,28.7,73.2,28.4z"/>
	<path class="st66" d="M46.6,61.4c0.1,0.6-0.6,0.9-0.5,1.5c-0.6,0-1.2,0-1.8,0c-0.2-0.3-0.3-0.6,0-0.9C45.2,62.2,46,62.3,46.6,61.4z
		"/>
	<path class="st82" d="M44.3,62c0.1,0.3,0.2,0.6,0,0.9C43.6,63,43,63,42.5,62.6c0-0.2,0.1-0.4,0.3-0.6C43.3,61.9,43.8,61.2,44.3,62
		L44.3,62z"/>
	<path class="st83" d="M10.8,25.1c0.2-0.2,0.4-0.4,0.6-0.6c0.6-0.3,0.8,0,0.7,0.6c-0.1,0.5-0.4,1-1,1.2l0,0
		C10.2,26.2,10.2,26.1,10.8,25.1z"/>
	<path class="st81" d="M35.3,55.5c-0.3,0.1-0.7-0.1-0.6-0.2c0.4-1.5-1-1.2-1.5-1.7c0.2,0,0.4,0,0.6,0C35.2,53.8,35.4,54,35.3,55.5
		L35.3,55.5z"/>
	<path class="st84" d="M10.3,29.6c0-0.3,0.2-0.6,0.3-0.9c0.2-0.1,0.4-0.2,0.6-0.3c0.7,0.5,1.5,0.3,2.3,0.2c0.1,0.1,0.2,0.3,0.1,0.5
		C12.6,29.7,11.5,30.5,10.3,29.6z"/>
	<path class="st49" d="M34.8,15.6c-0.1,0.4-0.2,0.8-0.7,0.8c-0.3,0-0.5-0.3-0.5-0.6c0-0.4,0.3-0.7,0.7-0.8
		C34.7,15,34.8,15.3,34.8,15.6z"/>
	<path class="st70" d="M7.9,29.6c0.2,0,0.5,0.1,0.6,0.3c0.5,0.5,1.3,0.2,1.7,0.9c0.1,0.1,0.1,0.3,0.2,0.4c-0.8,0.5-1.6-0.2-2.4-0.1
		c-0.3-0.2-0.5-0.5-0.6-0.8C7.5,30,7.7,29.8,7.9,29.6z"/>
	<path class="st52" d="M33.5,50.3c-0.9-0.5-0.9-0.9,0.1-1.2c0.6-0.2,1.3-0.4,2-0.6c0.1,0,0.1,0.1,0.2,0.1c0,0.1,0,0.1,0.1,0.2
		c0,0.1,0,0.1,0,0.2c0,0.1-0.1,0.3-0.2,0.4c-0.1,0.1-0.2,0.1-0.4,0.2C34.5,49.5,33.9,49.8,33.5,50.3z"/>
	<path class="st82" d="M33.5,50.3c-0.1-0.5,0.1-0.9,0.6-1c0.4-0.1,0.8-0.1,1.2-0.2c0.3,0.2,0.3,0.5,0.2,0.7
		c-0.1,0.1-0.2,0.2-0.3,0.3c-0.4,0.1-0.8-0.1-1.2,0.1C33.8,50.3,33.7,50.3,33.5,50.3z"/>
	<path class="st85" d="M48.5,62.6c0-0.4,0-0.8,0.5-0.9c0.5,0.5,1.4,0,1.9,0.6c-0.2,0.1-0.4,0.2-0.6,0.3
		C49.7,62.9,49.1,62.9,48.5,62.6L48.5,62.6z"/>
	<path class="st86" d="M50.3,37.1c0,0.6,0,1.2-0.6,1.6c-0.2,0.2-0.3,0.5-0.7,0.5c-0.1,0-0.3-0.1-0.4-0.2c-0.2-1,0.4-2,0.5-2.9
		c0.1-0.1,0.2-0.2,0.4-0.2C49.9,36.2,50.3,36.5,50.3,37.1z"/>
	<path class="st28" d="M66.9,57.8c0.8-0.7,0.6-1.7,0.6-2.6c0.1,0,0.2-0.1,0.2-0.1c0,0.4,0,0.8,0,1.2c0,0.3,0.1,0.6,0.3,0.8
		c0.2,0.1,0.5,0.2,0.8,0.3c-0.3,0.3-0.6,0.1-0.9,0.2C67.6,57.7,67.3,57.7,66.9,57.8z"/>
	<path class="st33" d="M14.1,35c-0.7,0.3-0.5-0.3-0.6-0.6c0.3-0.4,0.6-0.8,1.2-0.9c0.6,0,0.5,0.3,0.4,0.6c-0.1,0.3-0.4,0.4-0.6,0.6
		l0,0C14.4,34.8,14.3,34.9,14.1,35L14.1,35z"/>
	<path class="st63" d="M40.7,50.4c-1.7,0.3-3.5,0.4-5.2,0c0.1-0.3,0.2-0.4,0.5-0.6c0.6-0.3,1.3-0.3,2-0.4c0.9-0.1,1.8-0.1,2.5,0.5
		C40.6,50.1,40.7,50.2,40.7,50.4z"/>
	<path class="st87" d="M28.1,24.2c-0.1-0.7,0-1.2,0.9-1.2c0.2,0.2,0.4,0.4,0.6,0.6c-0.4,0.2-0.6,0.5-0.6,0.9
		C28.6,24.4,28.3,24.3,28.1,24.2z"/>
	<path class="st88" d="M73.2,26c-0.1,0-0.2,0-0.3,0c-0.6-0.3-0.7-1-1-1.6c-0.1-0.1-0.1-0.3,0.1-0.4c0.1,0,0.3,0,0.4,0.1
		C72.9,24.7,72.9,25.4,73.2,26z"/>
	<path class="st89" d="M27.1,13.4c-0.1-0.2-0.4-0.3-0.6-0.3c0.1-0.1,0.2-0.2,0.3-0.3c0.5-0.3,1.1-1,1.5-0.4c0.4,0.7-0.7,0.6-0.9,1
		C27.3,13.5,27.2,13.5,27.1,13.4z"/>
	<path class="st90" d="M76,53.3c0.4,0.5,0,1.2,0.6,1.6c-0.1,0.1-0.2,0.2-0.3,0.3c-0.4,0.1-0.8,0.8-1.1,0.5c-0.4-0.4,0.3-0.7,0.5-1.1
		c0.2-0.3,0.2-0.6,0.2-1C75.8,53.5,75.8,53.4,76,53.3z"/>
	<path class="st55" d="M27.1,13.4c0.1,0,0.2,0,0.3,0c-0.1,0.6,1,1.1,0.3,1.8c-0.1,0-0.2,0-0.3,0c-0.3,0.1-0.4,0-0.3-0.3
		c-0.1-0.3-0.2-0.6-0.3-0.9l0,0C27,13.8,26.9,13.5,27.1,13.4L27.1,13.4z"/>
	<path class="st91" d="M43.7,33.8c0.3-0.1,0.6-0.2,0.9-0.3c1.4,1.1,1.4,1.2,0.3,1.9c-0.2,0-0.3,0-0.5,0c-0.2,0-0.3,0-0.5-0.1
		c-0.1-0.1-0.3-0.2-0.4-0.3c-0.2-0.3-0.4-0.6-0.6-0.9c0-0.1,0-0.3,0-0.4c0.1-0.1,0.3-0.1,0.4,0C43.5,33.8,43.6,33.8,43.7,33.8z"/>
	<path class="st92" d="M22,51.2c0,0.1,0,0.2,0,0.3c0.7,1.1,0.5,2.2,0,3.3c-0.1,0-0.2,0-0.3,0c-0.3-0.3-0.3-0.6,0-0.9
		C21.9,53,21,52,22,51.2z"/>
	<path class="st12" d="M80.7,47.1c0.1,0.2,0.2,0.4,0.4,0.6l0,0c-0.5,0.4-1.1,0-1.5,0.3c-0.1,0-0.2,0-0.3,0c-0.3,0.2-0.7,0.2-1-0.1
		c0-0.2,0-0.3,0-0.5c0.1-0.2,0.2-0.2,0.4-0.1c0.3,0,0.5,0,0.8,0C79.9,47.2,80.2,46.6,80.7,47.1z"/>
	<path class="st63" d="M23.2,53.9c0.1-1-0.3-2.1,0.3-3c0,0.4-0.1,1,0.1,1.3C24.2,53,23.8,53.5,23.2,53.9z"/>
	<path class="st93" d="M62.3,15.2c0,0.1,0,0.2,0,0.3c-1.5,0-3,0-4.5,0C59.3,14.9,60.8,15.2,62.3,15.2z"/>
	<path class="st88" d="M36.4,10.8c0.7,0.1,1.4,0.2,2.1,0.2c0.5,0,1,0.1,1.3,0.6c-1.1-0.3-2.3-0.1-3.3-0.6
		C36.5,10.9,36.5,10.8,36.4,10.8z"/>
	<path class="st81" d="M39.5,42.8c1.3,0,2.6,0.1,3.8-0.3c0.1,0.1,0.2,0.3,0.1,0.5c-0.1,0.3-0.4,0.5-0.8,0.6c-1,0-2,0.2-3-0.1
		c-0.1-0.1-0.2-0.2-0.3-0.4C39.4,42.9,39.5,42.8,39.5,42.8z"/>
	<path class="st50" d="M23.2,31.1c0.6,0.1,0.9-0.2,0.9-0.9c0.1,0.1,0.2,0.1,0.2,0.2c0.1,0.6,0.5,1.5,0.2,1.6
		C23.8,32.3,23.7,31.4,23.2,31.1z"/>
	<path class="st4" d="M11.1,26.3c0.2-0.4,0.6-0.7,0.8-1.2c0.2-0.5-0.1-0.6-0.5-0.6c0.2-0.2,0.4-0.5,0.7-0.4c0.3,0.1,0.3,0.5,0.2,0.8
		C12.2,25.5,12,26.2,11.1,26.3z"/>
	<path class="st27" d="M63,16.8c-0.1,0.1-0.2,0.2-0.3,0.3c-0.4,0.4-0.9,0.8-1.4,1c-0.2,0-0.3-0.1-0.4-0.2c-0.3-0.5-0.1-0.9,0.4-1.1
		c0.5-0.2,1.1-0.5,1.7-0.1C62.9,16.6,63,16.8,63,16.8z"/>
	<path class="st81" d="M33.2,53.6c-0.4,0.1-0.6,0.3-0.4,0.8c0.4,0.6,0,0.9-0.5,1.1c0-0.5,0-1.1,0.1-1.6
		C32.4,53.3,32.8,53.3,33.2,53.6z"/>
	<path class="st81" d="M39.5,61.4c-0.3-0.1-0.6-0.2-0.8-0.2c-1.5-0.1-1-0.7-0.4-1.3C38,60.9,39.4,60.6,39.5,61.4z"/>
	<path class="st21" d="M42.2,38.6c0.6,0,1.2,0,1.8,0c0,0.1,0.1,0.1,0.1,0.2c0,0.1-0.1,0.3-0.2,0.4c-0.8,0.5-1.7,0.9-2.6,0.9
		c-0.1,0-0.3-0.1-0.4-0.2c-0.1-0.1-0.1-0.3,0-0.4C41.3,39.2,41.7,38.9,42.2,38.6z"/>
	<path class="st94" d="M33.5,27.5c0.8-0.1,2,0.6,2.3-0.8c0.1-0.1,0.2-0.2,0.3,0c0.2,0.6-0.1,1.1-0.7,1.2c-0.8,0.1-1.5,0.3-2.3-0.2
		C33.2,27.4,33.3,27.3,33.5,27.5z"/>
	<path class="st21" d="M39.8,40.7c0.2-0.3,0.4-0.6,0.6-0.9l0,0c0.1-0.2,0.3-0.2,0.5-0.1l0.1,0.1c0.3,0.5,1.1,0.2,1.3,0.8
		c0,0.1,0,0.3-0.1,0.3c-0.1,0-0.2,0-0.3,0.1c-0.6,0.2-1.2,0.2-1.8,0l0,0C40,40.9,39.9,40.8,39.8,40.7C39.8,40.7,39.8,40.7,39.8,40.7
		z"/>
	<path class="st89" d="M43.4,42.8c0-0.1,0-0.2,0-0.3c0.4-0.4,1-0.8,0.4-1.5c-0.1-0.2,0-0.3,0.2-0.4c1,0.3,1.2,0.6,1.1,1.3
		C44.8,42.6,44.4,42.9,43.4,42.8z"/>
	<path class="st27" d="M22.9,48.3c-0.6-0.1-1.3,0.3-1.8-0.3c1,0.1,2,0.1,2.1-1.2c0.3,0.2,0.2,0.6,0.3,0.9l0,0
		c-0.1,0.1-0.2,0.2-0.3,0.3C23.1,48,23,48.1,22.9,48.3z"/>
	<path class="st95" d="M38.6,18.2c-0.4,0.7-0.4,0.7-1.2,0c-0.2-0.4-0.2-0.7,0.4-0.5C38,17.8,38.3,18,38.6,18.2z"/>
	<path class="st43" d="M14.5,34.7c0.1-0.4,0.9-0.7,0.3-1.3c0.4-0.3,0.8-0.3,1.2-0.3c0,0.1,0,0.2,0,0.3c-0.1,0.1-0.2,0.2-0.3,0.3
		C15.3,34.1,15.1,34.8,14.5,34.7z"/>
	<path class="st66" d="M44.3,62c-0.5-0.3-1,0.1-1.5,0c0-0.1,0-0.2,0-0.3c0.6-0.1,1-0.4,1.2-0.9c0.3,0,0.5,0.1,0.4,0.5
		C44.3,61.5,44.3,61.8,44.3,62z"/>
	<path class="st94" d="M44.9,15.4c0.8,0.4,1.4,1,1.8,1.8C46,16.8,45.4,16.2,44.9,15.4z"/>
	<path class="st96" d="M70.8,39.3c-0.4-0.1-0.8-0.2-1.1-0.3c-0.4-0.1-0.9-0.2-1.2,0.3c-0.3-0.2-0.3-0.5,0-0.5
		C69.3,38.5,70.1,38.5,70.8,39.3z"/>
	<path class="st80" d="M78.3,47.9c0.3,0,0.6,0,1,0.1c-1.1,0.4-2.2,0.5-3.3,0C76.7,47.9,77.5,47.9,78.3,47.9z"/>
	<path class="st97" d="M13.6,21.2c-0.3,0.2-0.6,0.2-0.9,0c0-0.1,0-0.1,0-0.2c0-0.1,0.1-0.2,0.2-0.4c0.2-0.2,0.4-0.4,0.6-0.6
		c0.1,0.2,0.4,0.3,0.6,0.3C14,20.6,13.6,20.8,13.6,21.2z"/>
	<path class="st98" d="M24.7,48.6c0.8-0.3,1.6-0.6,2.4-0.9c-0.5,1-1.5,0.9-2.4,1.2c-0.1-0.1-0.1-0.1-0.1-0.2
		C24.7,48.6,24.7,48.6,24.7,48.6z"/>
	<path class="st54" d="M12.9,38.9c0.1,0.2,0.2,0.4,0.3,0.6c-0.5,0-0.6,1.1-1,0.6C11.8,39.6,12.5,39.2,12.9,38.9z"/>
	<path class="st99" d="M24.1,38.7c-0.8,0.1-0.4,0.5-0.3,0.9c-0.5-0.1-0.9-0.3-0.8-0.8c0.1-0.6,0.7-0.4,1.1-0.4
		c0.1,0.1,0.1,0.1,0.1,0.2C24.1,38.6,24.1,38.7,24.1,38.7z"/>
	<path class="st76" d="M53,24.8c0.5-0.6,1-0.3,1.5,0c0,0.1,0,0.2,0,0.3c-0.3,0.1-0.5,0.3-0.6,0.6c-0.2,0-0.4,0-0.6,0
		C53.1,25.4,53.3,25.1,53,24.8z"/>
	<path class="st71" d="M57,45.8c0,0.1,0,0.2,0,0.3c-1.2,0.4-1.5-0.5-1.8-1.3c0-0.2,0.1-0.3,0.2-0.4C56.1,44.7,56.5,45.3,57,45.8z"/>
	<path class="st27" d="M47.3,17.9c0.8,0,0.9,0.7,1.2,1.2c0,0.1,0,0.2,0,0.3C47.9,19,47.4,18.6,47.3,17.9z"/>
	<path class="st65" d="M28.6,47c0.8-0.4,1.5-0.8,2.4-0.9C30.4,46.8,29.6,47.1,28.6,47z"/>
	<path class="st76" d="M53.1,42.8c0.9,0.1,1.6,0.5,2,1.3c-0.1,0.2-0.2,0.3-0.4,0.4c-0.1,0-0.3,0-0.4,0c-0.1,0-0.2-0.1-0.3-0.2
		c-0.1,0-0.1-0.1-0.2-0.1c-0.1-0.1-0.2-0.1-0.3-0.2c-0.1-0.1-0.2-0.1-0.3-0.2c-0.2-0.2-0.4-0.3-0.4-0.6C52.9,42.9,53,42.8,53.1,42.8
		z"/>
	<path class="st28" d="M17.7,18.5c-0.2-0.4,1.3-1.1-0.2-1.2c0.3-0.3,0.7-0.5,1-0.1c0.5,0.6-0.3,0.9-0.4,1.3
		C17.9,18.6,17.8,18.6,17.7,18.5z"/>
	<path class="st100" d="M70.8,43.4c0.7,0.3,0.6,1.4,1.5,1.5C71.1,45.1,71,44.2,70.8,43.4z"/>
	<path class="st29" d="M13.6,26.3c-0.3,0.7-0.7,1.3-1.5,1.5C12.4,27.2,12.9,26.7,13.6,26.3z"/>
	<path class="st81" d="M42.8,61.7c-0.8,0-1.7,0.1-2.4-0.3C41.2,61.2,42,61.3,42.8,61.7z"/>
	<path class="st33" d="M41.9,35.9c-0.8-1-0.8-1,0-1.8c0.1,0.1,0.3,0.2,0.3,0.3c0.1,0.3,0.1,0.6,0.1,0.9c0,0.2,0,0.3-0.1,0.4
		C42.1,35.8,42,35.9,41.9,35.9z"/>
	<path class="st81" d="M37.1,42.2c0.9,0,1.7,0.1,2.5,0.5l-0.1,0.1c-0.4,0.3-0.8,0.5-1.2,0.2c-0.4-0.4-0.8-0.2-1.2-0.5l0,0
		C36.9,42.4,36.9,42.3,37.1,42.2z"/>
	<path class="st79" d="M13.2,55.8c0.1,0,0.2,0,0.3-0.1c0.8,0,1.6,0,2.4,0c0,0.1,0,0.2,0,0.3c-0.5,0.3-1.1,0.2-1.6,0.3
		C13.9,56.5,13.4,56.4,13.2,55.8z"/>
	<path class="st45" d="M51.8,17.6c-0.9,0.4-1.8,0.6-2.7,0C50,17.6,50.9,17.6,51.8,17.6z"/>
	<path class="st65" d="M26.5,19.4c-1-0.3-1,0.7-1.5,1.1C25.2,19,25.4,18.9,26.5,19.4z"/>
	<path class="st58" d="M36.4,37.7c-0.7,0.1-0.2,0.5-0.2,0.8c-0.1-0.1-0.3-0.1-0.4-0.2c-0.2-0.2-0.6-0.4-0.4-0.7
		C35.8,37.2,36.1,37.4,36.4,37.7z"/>
	<path class="st49" d="M66.9,20.3c0.5,0.3,0.5,1.1,1.3,1.2c-0.9,0.3-1,0.3-1.3-0.9C66.9,20.5,66.9,20.4,66.9,20.3z"/>
	<path class="st95" d="M58.7,47.1c0.5,0,0.9,0.1,1.2,0.5c-0.3,0.2-0.6,0.4-0.9,0.6c-0.1,0-0.2-0.1-0.3-0.2
		C58.5,47.7,58.4,47.4,58.7,47.1z"/>
	<path class="st101" d="M46.1,28.4c0,0.1,0,0.3-0.1,0.4c-0.4-0.8-0.4-1.5,0.4-2.1c0.1,0.1,0.2,0.2,0.3,0.3
		C47,27.7,46.7,28.1,46.1,28.4z"/>
	<path class="st41" d="M10.8,25.1c-0.2,0.5-0.6,1.1,0.3,1.2c-0.1,0.1-0.2,0.2-0.3,0.3c-0.2,0-0.4,0-0.6,0
		C10.3,26,9.9,25.3,10.8,25.1z"/>
	<path class="st12" d="M7.3,30.2c0.5,0,0.6,0.4,0.6,0.8C7.5,31,7,30.9,6.6,30.8c0.1-0.1,0.2-0.2,0.3-0.3C7,30.4,7.1,30.3,7.3,30.2
		L7.3,30.2z"/>
	<path class="st4" d="M47.9,22.4c-0.6-0.3-0.5-0.6,0-0.9c0.1,0,0.2,0,0.3,0c0.2,0.1,0.5,0.1,0.6,0.3l0,0c0.1,0.1,0.1,0.2,0.1,0.3
		c0,0.1,0,0.1,0,0.1C48.6,22.5,48.2,22.5,47.9,22.4z"/>
	<path class="st27" d="M48.8,19.4c0.8-0.1,1.5,0.1,1.8,0.9C50,20,49.4,19.7,48.8,19.4z"/>
	<path class="st87" d="M28.9,24.5c0.6,0.4,1,0.8,1.3,1.4C29.6,25.6,29.1,25.2,28.9,24.5z"/>
	<path class="st29" d="M17.7,21.1c0.8-0.5,1.6-0.1,2.4-0.3c0,0.1,0.1,0.1,0.1,0.2c0,0.5-0.5,0.7-0.8,0.9c-0.5,0.2-1,0-1.4-0.3
		C17.9,21.4,17.8,21.3,17.7,21.1z"/>
	<path class="st18" d="M61.2,17.9c0.5-0.3,0.9-0.7,1.5-0.9c-0.2,0.7-0.9,1-1.5,1.2l0,0C61.1,18.1,61.1,18,61.2,17.9z"/>
	<path class="st35" d="M10.6,32c0.7-0.5,1.4-0.4,2.1-0.3C12,32.1,11.3,32,10.6,32z"/>
	<path class="st58" d="M35,26.3c-0.7,0.1-1.3,0-1.8-0.6C33.8,25.7,34.4,25.8,35,26.3z"/>
	<path class="st42" d="M31.3,26.6c0.6,0,1.2-0.1,1.5,0.6C32.2,27.2,31.7,27.1,31.3,26.6z"/>
	<path class="st79" d="M21.7,53.9c0,0.3,0,0.6,0,0.9l0,0c-0.4,0.2-0.7,0.1-0.9-0.3c0-0.1-0.1-0.2-0.1-0.4
		C21,53.9,21.4,53.9,21.7,53.9z"/>
	<path class="st11" d="M48.8,22c0-0.1,0-0.2,0-0.3c0.6,0,1.2,0,1.8,0c-0.2,0.4-0.7,0.3-0.9,0.6c-0.1,0.1-0.2,0.2-0.3,0.2
		c-0.2,0-0.3-0.1-0.5-0.2C48.9,22.3,48.8,22.2,48.8,22z"/>
	<path class="st68" d="M38.2,38.7c-0.6,0-1.1-0.1-1.5-0.6c-0.1-0.1-0.1-0.1-0.1-0.2c0-0.1,0.1-0.1,0.1-0.1
		C37.2,38.1,37.7,38.4,38.2,38.7z"/>
	<path class="st65" d="M25.9,57.8c-0.6-0.1-1.1-0.5-1.5-0.9C25.1,56.9,25.6,57.2,25.9,57.8z"/>
	<path class="st102" d="M76.2,50.6c-0.8,0.1-0.5,0.8-0.6,1.2c-0.3-0.3-0.3-0.6-0.3-1C75.4,50.2,75.8,50.2,76.2,50.6z"/>
	<path class="st58" d="M22.9,15.8c0.5-0.5,1.2-0.3,1.8-0.3C24.2,16,23.5,15.7,22.9,15.8z"/>
	<path class="st63" d="M69.6,50.6c0-0.6-0.1-1.3,0.3-1.8C69.8,49.4,70.1,50.1,69.6,50.6z"/>
	<path class="st103" d="M7.3,31.7c0.5,0.1,1.1-0.1,1.4,0.4c-0.6,0-1.3,0.1-1.9-0.3C7,31.6,7.1,31.5,7.3,31.7z"/>
	<path class="st24" d="M15.4,56.9c0.6,0,1.3-0.2,1.8,0.3C16.5,57.3,15.9,57.4,15.4,56.9z"/>
	<path class="st102" d="M76,53.3c0,0.1,0,0.3-0.1,0.4c-0.4-0.6-0.3-1.2-0.3-1.8C76,52.2,75.8,52.8,76,53.3z"/>
	<path class="st104" d="M79.2,40.4c0-0.6,0-1.2,0-1.8c0.5,0.5,0.3,1.2,0.3,1.8C79.4,40.5,79.3,40.5,79.2,40.4z"/>
	<path class="st63" d="M23.5,56.3c-0.5-0.5-0.2-1.2-0.3-1.8C23.7,55.1,23.5,55.7,23.5,56.3z"/>
	<path class="st24" d="M24.7,48.6c0,0.1,0,0.2,0,0.3c-0.2,0.3-0.4,0.5-0.7,0.8c0,0.2-0.1,0.2-0.2,0.1l-0.1-0.1
		C23.9,49.1,24.2,48.8,24.7,48.6z"/>
	<path class="st81" d="M78.9,52.1c-0.5,0-1,0-1.5,0c-0.1-0.1-0.2-0.2-0.3-0.3C77.8,51.9,78.4,51.6,78.9,52.1z"/>
	<path class="st105" d="M69.6,41c0.5,0.4,0.5,0.9,0.6,1.5C69.7,42.1,69.6,41.6,69.6,41z"/>
	<path class="st45" d="M40.1,41c0.6,0,1.2,0,1.8,0C41.3,41.4,40.7,41.5,40.1,41z"/>
	<path class="st106" d="M28.9,60c0.6,0,1.2-0.1,1.5,0.5c-0.5-0.1-1-0.2-1.5-0.3C28.7,60.1,28.7,60.1,28.9,60z"/>
	<path class="st107" d="M74.1,46.7c0.6,0,0.9,0.5,1.2,0.9C74.7,47.6,74.4,47.2,74.1,46.7z"/>
	<path class="st80" d="M48.5,62.6c0.6,0,1.2,0,1.8,0C49.7,63.1,49.1,63.1,48.5,62.6z"/>
	<path class="st71" d="M31.7,45.5c0.5,0.1,1-0.3,1.5-0.3c-0.3,0.6-0.9,0.7-1.5,0.6C31.6,45.7,31.7,45.6,31.7,45.5z"/>
	<path class="st7" d="M49.1,55.1c0.5,0.5,0.2,1.2,0.3,1.8C48.9,56.4,49.2,55.7,49.1,55.1z"/>
	<path class="st98" d="M36.1,42.2c-0.4-0.1-0.7-0.2-0.9-0.6c0.5,0,0.9,0.3,1.3,0.6C36.4,42.4,36.3,42.4,36.1,42.2z"/>
	<path class="st16" d="M79.5,47.9c0.4-0.4,1-0.2,1.5-0.3C80.6,48.1,80,47.9,79.5,47.9z"/>
	<path class="st108" d="M41.9,35.9c0-0.1,0-0.2,0.1-0.3c0.7-0.1,1,0.2,0.9,0.9c-0.1,0.1-0.3,0.1-0.4,0
		C42.3,36.3,42.1,36.1,41.9,35.9z"/>
	<path class="st109" d="M14.7,56.7c0.1,0.1,0.1,0.1,0.1,0.2c-0.6,0.1-1.1,0.2-1.6-0.2l0.1-0.1C13.8,56.3,14.3,56.2,14.7,56.7z"/>
	<path class="st110" d="M54.2,17c-0.3,0.4-0.8,0.2-1.2,0.3c-0.1,0-0.2,0-0.3-0.1C53.1,16.8,53.7,16.9,54.2,17z"/>
	<path class="st90" d="M13.6,31.4c0.3-0.5,0.7-0.6,1.2-0.6C14.5,31.2,14,31.3,13.6,31.4z"/>
	<path class="st55" d="M27.1,16.2c0.4-0.1,0.6-0.3,0.7-0.7c0.2,0.2,0.3,0.5,0.1,0.7C27.6,16.5,27.3,16.3,27.1,16.2z"/>
	<path class="st63" d="M23.8,49.8c0.1,0,0.1-0.1,0.2-0.1c0.1,0.5,0,1-0.5,1.3C23.6,50.5,23.7,50.2,23.8,49.8z"/>
	<path class="st57" d="M43.4,33.8c-0.1,0-0.2,0-0.3,0c-0.4,0.4-0.8,0.3-1.1,0C42.4,33.3,42.9,33.4,43.4,33.8z"/>
	<path class="st12" d="M7.3,31.7c-0.1,0-0.3,0.1-0.4,0.1c-0.3-0.1-1,0.1-0.6-0.7C6.5,31.5,7,31.4,7.3,31.7z"/>
	<path class="st111" d="M41.9,33.9c0.4,0,0.8,0,1.1,0c0,0.1,0,0.2,0.1,0.2c0,0.1,0,0.1,0,0.2c-0.2,0.3-0.5,0.4-0.8,0.4
		c-0.1,0-0.2-0.1-0.3-0.2c0-0.1,0-0.2,0-0.4C41.9,34,41.9,33.9,41.9,33.9z"/>
	<path class="st45" d="M43.7,40.7c0,0.1,0,0.2,0,0.3c-0.5,0-1.1,0-1.6,0c0-0.1,0-0.2,0-0.3C42.7,40.2,43.2,40.2,43.7,40.7z"/>
	<path class="st50" d="M24.1,38.7c0-0.1,0-0.2,0-0.3c0.4,0.2,0.7,0.5,0.9,0.9C24.6,39.2,24.3,39,24.1,38.7z"/>
	<path class="st52" d="M34,50.3c0.3-0.4,0.8-0.3,1.2-0.2l0.1,0.1l0,0.1C34.9,50.3,34.4,50.3,34,50.3z"/>
	<path class="st82" d="M53.6,50.9c-0.2,0-0.4,0.1-0.5,0.1c-0.1-0.1-0.2-0.2-0.2-0.4c0.2-0.5,0.5-0.6,1-0.4c0.1,0.1,0.1,0.3,0,0.4
		C53.8,50.7,53.7,50.8,53.6,50.9z"/>
	<path class="st26" d="M66.6,53.3c0.2,0,0.4,0,0.5-0.1l0.1,0.1c0,0.6-0.2,0.8-0.8,0.6c-0.1,0-0.1-0.1-0.2-0.1
		C66.4,53.7,66.5,53.5,66.6,53.3z"/>
	<path class="st81" d="M32.2,55.4c-0.2,0.2-0.4,0.4-0.6,0.6c-0.1,0.1-0.2,0.1-0.3,0C31.5,55.7,31.8,55.4,32.2,55.4z"/>
	<path class="st81" d="M38.3,59.9c0-0.1,0-0.2,0-0.3c0.1-0.2,0.2-0.4,0.3-0.6C39,59.5,38.6,59.7,38.3,59.9z"/>
	<path class="st110" d="M55.4,16.7c-0.3,0.4-0.8,0.3-1.2,0.3C54.5,16.6,55,16.7,55.4,16.7z"/>
	<path class="st112" d="M17.7,18.5c0.1,0,0.2,0,0.3,0c-0.2,0.4-0.4,0.6-0.9,0.6C17.3,18.8,17.5,18.6,17.7,18.5z"/>
	<path class="st56" d="M69.9,23c-0.4-0.3-0.3-0.8-0.3-1.2C70,22.1,69.9,22.6,69.9,23z"/>
	<path class="st87" d="M30.4,24.2c-0.4,0-0.7-0.2-0.9-0.6C30,23.6,30.3,23.8,30.4,24.2z"/>
	<path class="st113" d="M36.1,42.2c0.1,0,0.3,0,0.4,0c0.2,0,0.4,0,0.5,0c0,0.1,0,0.2,0,0.3C36.7,42.5,36.4,42.5,36.1,42.2z"/>
	<path class="st99" d="M75.9,31.4c-0.3-0.2-0.3-0.5-0.4-0.8C75.9,30.7,75.9,31.1,75.9,31.4z"/>
	<path class="st82" d="M35.3,50.3c0-0.1,0-0.2-0.1-0.2c0,0,0.1-0.1,0.1-0.1c0.3-0.1,0.6,0,0.5,0.4c-0.1,0-0.3,0.1-0.4,0.1
		C35.4,50.4,35.4,50.3,35.3,50.3z"/>
	<path class="st114" d="M14.8,30.8c0.1-0.2,0.3-0.3,0.6-0.4c0.1-0.1,0.2-0.1,0.3,0c0,0,0.1,0.1,0.1,0.1
		C15.4,30.8,15.1,30.9,14.8,30.8z"/>
	<path class="st42" d="M31.3,56.3c-0.2,0.3-0.5,0.3-0.9,0.3C30.6,56.3,31,56.3,31.3,56.3z"/>
	<path class="st86" d="M49.1,35c0.3,0.2,0.3,0.5,0.4,0.8c-0.1,0-0.1,0.1-0.2,0.1c-0.3,0-0.5-0.2-0.5-0.5c0-0.1,0.1-0.3,0.1-0.4
		C49,35,49.1,35,49.1,35z"/>
	<path class="st115" d="M43.1,11.9c-0.3,0-0.7,0-0.9-0.3C42.5,11.6,42.9,11.6,43.1,11.9z"/>
	<path class="st116" d="M9,32.3c0.3,0,0.6,0,0.9,0C9.7,32.8,9.3,32.7,9,32.3z"/>
	<path class="st98" d="M27.1,47.6c0.1-0.1,0.2-0.2,0.3-0.3c0.2,0,0.4,0,0.6,0C27.8,47.6,27.5,47.7,27.1,47.6z"/>
	<path class="st12" d="M79.6,41.6c0-0.3,0-0.6,0-0.9C79.8,41,79.9,41.3,79.6,41.6z"/>
	<path class="st58" d="M36.1,26.6c-0.1,0-0.2,0-0.3,0c-0.2,0-0.4-0.1-0.5-0.3C35.6,26.2,35.9,26.3,36.1,26.6z"/>
	<path class="st70" d="M68.7,48.6c0,0.3-0.1,0.6-0.3,0.9C68.4,49.1,68.4,48.8,68.7,48.6z"/>
	<path class="st75" d="M14.4,38.7c-0.2-0.3-0.3-0.6-0.2-1c0.1,0.1,0.2,0.2,0.3,0.3c0,0.1,0.1,0.2,0.1,0.3c0,0.1,0,0.1,0,0.2
		C14.5,38.6,14.5,38.6,14.4,38.7z"/>
	<path class="st96" d="M68.4,37.6c0,0.1-0.1,0.2-0.2,0.1c0-0.1,0-0.2,0-0.3c0,0,0.1-0.1,0.1-0.1C68.3,37.5,68.3,37.5,68.4,37.6z"/>
	<path class="st117" d="M76.2,32.3c-0.3-0.2-0.3-0.6-0.3-0.9C76.2,31.7,76.2,32,76.2,32.3z"/>
	<path class="st71" d="M33.2,45.2c0.1-0.2,0.3-0.3,0.6-0.3C33.6,45.2,33.4,45.3,33.2,45.2z"/>
	<path class="st76" d="M52.4,42.5c0.1,0,0.2,0,0.4,0c0.1,0.1,0.2,0.2,0.3,0.3L53,42.9C52.7,43,52.4,43,52.4,42.5z"/>
	<path class="st61" d="M75.3,47.6c0.3,0,0.5,0,0.6,0.3C75.7,48,75.5,47.9,75.3,47.6z"/>
	<path class="st50" d="M23.8,29.9c-0.2-0.1-0.3-0.4-0.3-0.6C23.7,29.4,23.8,29.7,23.8,29.9z"/>
	<path class="st118" d="M54.5,44c0.2,0,0.4,0,0.6,0c0,0.1,0.1,0.1,0.1,0.2c0,0.1-0.1,0.2-0.3,0.2C54.6,44.4,54.4,44.4,54.5,44z"/>
	<path class="st63" d="M41.2,50.4c-0.2,0-0.3,0-0.5,0c0,0-0.1-0.1-0.1-0.1c0-0.1-0.1-0.1-0.1-0.2c0-0.1,0.1-0.2,0.3-0.3
		c0.2,0,0.4,0,0.5,0.2C41.4,50.2,41.3,50.3,41.2,50.4z"/>
	<path class="st98" d="M11.7,28.1c-0.1,0.3-0.3,0.4-0.6,0.3C11.3,28.2,11.5,28.1,11.7,28.1z"/>
	<path class="st34" d="M45.8,57.8c-0.2,0-0.4,0-0.6,0C45.4,57.6,45.6,57.6,45.8,57.8z"/>
	<path class="st65" d="M26.5,58.1c-0.3,0-0.5-0.1-0.6-0.3C26.2,57.8,26.4,57.9,26.5,58.1z"/>
	<path class="st28" d="M64.5,57.9c-0.2,0.2-0.5,0.2-0.7,0l0.1-0.1C64.1,57.6,64.3,57.7,64.5,57.9L64.5,57.9z"/>
	<path class="st14" d="M34.7,41.3c-0.2,0-0.4,0-0.6,0c0-0.1,0-0.2,0-0.3C34.3,41,34.5,41.1,34.7,41.3z"/>
	<path class="st115" d="M38.3,58.7c-0.2-0.1-0.3-0.3-0.3-0.5c0.1,0.1,0.2,0.2,0.3,0.2C38.4,58.5,38.4,58.6,38.3,58.7
		C38.3,58.7,38.3,58.7,38.3,58.7z"/>
	<path class="st119" d="M18.7,48.5c0.3,0,0.5,0.1,0.6,0.3C19,48.8,18.8,48.8,18.7,48.5z"/>
	<path class="st81" d="M38.3,58.7c0-0.1,0-0.2,0-0.3c0.2,0.2,0.3,0.4,0.3,0.6C38.5,58.9,38.4,58.8,38.3,58.7z"/>
	<path class="st42" d="M33.5,27.5c-0.1,0-0.2,0-0.4,0.1c-0.1-0.1-0.2-0.2-0.3-0.3C33.1,27.2,33.3,27.3,33.5,27.5z"/>
	<path class="st45" d="M27.4,59.7c0.2,0,0.5,0,0.6,0.2C27.8,59.9,27.6,59.9,27.4,59.7z"/>
	<path class="st45" d="M28.9,60c0,0.1,0,0.2,0,0.2c-0.3,0-0.5,0-0.6-0.2c0.1,0,0.2-0.1,0.4-0.1C28.8,59.9,28.8,59.9,28.9,60z"/>
	<path class="st16" d="M20.8,47.6c-0.3,0-0.5-0.1-0.6-0.3C20.5,47.3,20.7,47.4,20.8,47.6z"/>
	<path class="st106" d="M30.7,60.6c0.3-0.1,0.5,0,0.6,0.2C31.1,60.8,30.9,60.8,30.7,60.6z"/>
	<path class="st119" d="M30.7,26.3c0.3,0,0.5,0.1,0.6,0.3C31.1,26.6,30.9,26.5,30.7,26.3z"/>
	<path class="st106" d="M31.4,60.8c0.3,0,0.4,0.1,0.5,0.4C31.7,61.2,31.5,61,31.4,60.8z"/>
	<path class="st119" d="M30.2,26c0.2,0,0.4,0.1,0.6,0.4C30.5,26.3,30.3,26.2,30.2,26z"/>
	<path class="st81" d="M40.1,61.5c-0.2,0.2-0.4,0.3-0.6,0C39.7,61.4,39.9,61.5,40.1,61.5z"/>
	<path class="st105" d="M69.3,40.4c0.2,0.1,0.3,0.3,0.3,0.6C69.4,40.9,69.3,40.7,69.3,40.4z"/>
	<path class="st58" d="M33.1,25.7c-0.3,0-0.5-0.1-0.6-0.3C32.8,25.4,33,25.5,33.1,25.7z"/>
	<path class="st25" d="M77.1,34.7c-0.2-0.1-0.3-0.4-0.3-0.6C77,34.3,77.1,34.5,77.1,34.7z"/>
	<path class="st105" d="M32.5,25.4c-0.2,0-0.4-0.1-0.6-0.3C32.2,25.1,32.4,25.2,32.5,25.4z"/>
	<path class="st80" d="M47.3,62.9c0.2-0.2,0.4-0.3,0.6-0.3C47.8,62.9,47.6,63,47.3,62.9z"/>
	<path class="st105" d="M31.9,25.1c-0.3,0-0.4-0.1-0.6-0.4C31.6,24.8,31.8,24.9,31.9,25.1z"/>
	<path class="st111" d="M31,24.5c-0.3,0-0.5-0.1-0.6-0.3C30.7,24.2,30.9,24.3,31,24.5z"/>
	<path class="st68" d="M40.9,39.7c-0.2,0-0.3,0.1-0.5,0.1c0.1-0.2,0.3-0.3,0.6-0.3C40.9,39.6,40.9,39.6,40.9,39.7z"/>
	<path class="st56" d="M69.3,23.3c0.2,0.1,0.3,0.3,0.3,0.6C69.4,23.8,69.3,23.6,69.3,23.3z"/>
	<path class="st7" d="M71.1,39.8c-0.2-0.1-0.3-0.3-0.4-0.5C71,39.3,71.1,39.5,71.1,39.8z"/>
	<path class="st11" d="M48.8,21.8c-0.2,0-0.5-0.1-0.6-0.3C48.4,21.5,48.7,21.6,48.8,21.8z"/>
	<path class="st75" d="M12.4,38c0.3,0,0.5,0.1,0.5,0.4C12.7,38.3,12.5,38.2,12.4,38z"/>
	<path class="st35" d="M13,31.7c0.1-0.2,0.4-0.3,0.6-0.3C13.4,31.6,13.2,31.7,13,31.7z"/>
	<path class="st119" d="M18.1,48.2c0.3,0,0.5,0.1,0.6,0.3C18.4,48.5,18.2,48.5,18.1,48.2z"/>
	<path class="st44" d="M67.2,19.1c-0.2-0.1-0.3-0.3-0.3-0.6C67.1,18.6,67.2,18.8,67.2,19.1z"/>
	<path class="st53" d="M59,47.9c0,0.1,0,0.2,0,0.3c-0.1,0.1-0.2,0.2-0.3,0.3c0,0-0.1-0.1-0.1-0.1c-0.1-0.1-0.1-0.2-0.1-0.4
		C58.7,47.9,58.8,47.8,59,47.9z"/>
	<path class="st114" d="M16.3,30.3c0,0.1,0,0.1-0.1,0.2c-0.2,0-0.4,0.1-0.5,0.1c0,0-0.1-0.1-0.1-0.1C15.8,30,16,30,16.3,30.3z"/>
	<path class="st56" d="M69.6,23.9c0.1,0.1,0.2,0.2,0.3,0.3C69.8,24.1,69.7,24,69.6,23.9z"/>
	<path class="st42" d="M30.4,56.6c-0.1,0.2-0.2,0.3-0.3,0.3C30.2,56.7,30.3,56.6,30.4,56.6z"/>
	<path class="st111" d="M31.4,24.8c-0.2,0-0.3-0.1-0.4-0.2C31.2,24.5,31.3,24.6,31.4,24.8z"/>
	<path class="st120" d="M46.7,26.3c0.1,0,0.2,0,0.3,0c0,0.1,0.1,0.1,0.1,0.2c0,0.1-0.1,0.2-0.3,0.2c-0.1,0-0.1-0.1-0.2-0.1
		C46.7,26.5,46.7,26.4,46.7,26.3z"/>
	<path class="st120" d="M46.5,27c0-0.1,0-0.2,0-0.3c0.1,0,0.2-0.1,0.2-0.1c0,0,0.1,0.1,0.1,0.1C46.8,26.9,46.7,27,46.5,27z"/>
	<path class="st45" d="M24.1,27.8c0.1-0.1,0.2-0.2,0.3-0.3C24.3,27.6,24.2,27.7,24.1,27.8z"/>
	<path class="st45" d="M23.8,28.1c0.1-0.1,0.2-0.2,0.3-0.3C24,27.9,23.9,28,23.8,28.1z"/>
	<path class="st45" d="M23.5,28.4c0.1-0.1,0.2-0.2,0.3-0.3C23.7,28.2,23.6,28.3,23.5,28.4z"/>
	<path class="st50" d="M24.1,30.2c-0.1-0.1-0.2-0.2-0.3-0.3C23.9,30,24,30.1,24.1,30.2z"/>
	<path class="st70" d="M7.3,30.2c-0.1,0.1-0.2,0.2-0.3,0.3C7,30.4,7.1,30.3,7.3,30.2z"/>
	<path class="st24" d="M17.1,57.3c0.2,0,0.3,0.1,0.4,0.2C17.3,57.5,17.2,57.4,17.1,57.3z"/>
	<path class="st14" d="M35,41.6c-0.2,0-0.3-0.1-0.4-0.3C34.8,41.4,34.9,41.5,35,41.6z"/>
	<path class="st12" d="M6.6,30.8C6.6,31,6.5,31,6.3,31.1C6.3,30.9,6.5,30.8,6.6,30.8z"/>
	<path class="st50" d="M22.9,30.8c0.1,0.1,0.2,0.2,0.3,0.3C23.1,31,23,30.9,22.9,30.8z"/>
	<path class="st115" d="M37.6,57.9c-0.1-0.1-0.2-0.2-0.2-0.3C37.5,57.6,37.5,57.7,37.6,57.9z"/>
	<path class="st115" d="M37.9,58.2c-0.1-0.1-0.2-0.2-0.3-0.3C37.8,57.9,37.9,58,37.9,58.2z"/>
	<path class="st34" d="M45.2,57.8c-0.1,0.1-0.2,0.2-0.3,0.3C45,58,45.1,57.9,45.2,57.8z"/>
	<path class="st43" d="M14.2,35c0.1-0.1,0.2-0.2,0.3-0.3C14.4,34.8,14.3,34.9,14.2,35z"/>
	<path class="st28" d="M61.4,58.1c0.1-0.2,0.2-0.2,0.3-0.3C61.7,57.9,61.5,58,61.4,58.1z"/>
	<path class="st86" d="M48.9,34.7c0.1,0,0.2,0,0.3,0c0,0.1,0,0.2,0,0.3L49,35.1c-0.1,0-0.2-0.1-0.3-0.2
		C48.8,34.8,48.8,34.7,48.9,34.7z"/>
	<path class="st70" d="M42.5,36.6c0.1,0,0.2,0,0.3,0c0.1,0,0.1,0.1,0.1,0.2c0,0.1-0.1,0.1-0.2,0.2C42.6,36.8,42.5,36.7,42.5,36.6z"
		/>
	<path class="st58" d="M36.8,37.8c0,0.1,0,0.2,0,0.2c-0.1-0.1-0.2-0.2-0.3-0.3C36.5,37.8,36.6,37.8,36.8,37.8z"/>
	<path class="st99" d="M73.8,46.4c0.2,0,0.3,0.1,0.3,0.3C73.9,46.7,73.8,46.6,73.8,46.4z"/>
	<path class="st27" d="M21.1,47.9c-0.1-0.1-0.2-0.2-0.3-0.3C20.9,47.7,21,47.8,21.1,47.9z"/>
	<path class="st52" d="M35.5,48.5c0.1-0.1,0.2-0.2,0.3-0.3l0.1,0c0.1,0.1,0.1,0.1,0.1,0.2c0,0.1,0,0.1,0,0.1
		C35.8,48.6,35.7,48.6,35.5,48.5C35.6,48.6,35.5,48.5,35.5,48.5z"/>
	<path class="st68" d="M39.8,40.7c0.1,0.1,0.2,0.2,0.3,0.3C40,40.9,39.9,40.8,39.8,40.7z"/>
	<path class="st106" d="M31.9,61.2c0.2,0,0.3,0.1,0.4,0.2C32.1,61.4,32,61.3,31.9,61.2z"/>
	<path class="st12" d="M79.2,40.4c0.1,0,0.2,0,0.3,0c0,0.1,0,0.2,0,0.3C79.4,40.6,79.3,40.5,79.2,40.4z"/>
	<path class="st7" d="M71.7,40.7c-0.2,0-0.3-0.2-0.3-0.3C71.5,40.5,71.6,40.6,71.7,40.7z"/>
	<path class="st63" d="M41.6,50.3c0,0.1,0,0.2,0,0.3c-0.1-0.1-0.2-0.2-0.3-0.2l0.1-0.1C41.4,50.2,41.5,50.2,41.6,50.3z"/>
	<path class="st53" d="M53.9,50.6c0-0.1,0-0.2,0-0.3c0-0.1,0.1-0.1,0.2-0.1c0.1,0.1,0.1,0.1,0.2,0.2C54.2,50.5,54.1,50.6,53.9,50.6z
		"/>
	<path class="st99" d="M73.6,46.1c0.2,0.1,0.2,0.2,0.2,0.4C73.6,46.4,73.6,46.2,73.6,46.1z"/>
	<path class="st118" d="M55.4,44.4c0,0.1,0,0.2,0,0.3c-0.2,0-0.3-0.1-0.3-0.3c0-0.1,0.1-0.1,0.1-0.2C55.3,44.3,55.4,44.3,55.4,44.4z
		"/>
	<path class="st7" d="M71.4,40.2c-0.1-0.1-0.1-0.3-0.2-0.4C71.3,39.9,71.4,40,71.4,40.2z"/>
	<path class="st54" d="M13.3,39.5c0.1,0.1,0.2,0.2,0.3,0.3C13.5,39.7,13.4,39.6,13.3,39.5z"/>
	<path class="st74" d="M9.7,53.6c0,0.1,0,0.2,0,0.3C9.6,53.9,9.6,53.8,9.7,53.6C9.6,53.7,9.6,53.7,9.7,53.6z"/>
	<path class="st96" d="M68.4,39.2c0.2,0.1,0.2,0.2,0.2,0.3C68.5,39.5,68.4,39.3,68.4,39.2z"/>
	<path class="st63" d="M22.9,54c0.1,0,0.2,0,0.3,0c0,0.1,0,0.2,0,0.3c-0.1,0-0.2,0-0.3,0C22.9,54.1,22.8,54.1,22.9,54
		C22.9,54,22.9,54,22.9,54z"/>
	<path class="st74" d="M9.7,54.2c0.1,0.1,0.1,0.2,0.2,0.4C9.8,54.4,9.8,54.3,9.7,54.2z"/>
	<path class="st79" d="M20.4,54.5c0.1-0.1,0.2-0.2,0.3-0.3l0.1,0.1C20.9,54.5,20.8,54.6,20.4,54.5L20.4,54.5z"/>
	<path class="st89" d="M26.5,13.1c-0.1,0.1-0.2,0.2-0.4,0.2C26.3,13.3,26.4,13.2,26.5,13.1z"/>
	<path class="st74" d="M10,54.8c0.1,0.1,0.2,0.2,0.3,0.3C10.1,55.1,10,55,10,54.8z"/>
	<path class="st68" d="M38.6,38.9c-0.1-0.1-0.2-0.2-0.3-0.2C38.4,38.7,38.5,38.7,38.6,38.9z"/>
	<path class="st44" d="M66.9,18.5c-0.1-0.1-0.2-0.2-0.3-0.3C66.7,18.3,66.8,18.4,66.9,18.5z"/>
	<path class="st97" d="M14.4,19c0,0.2-0.1,0.3-0.3,0.4C14.2,19.2,14.3,19.1,14.4,19z"/>
	<polygon class="st121" points="35.3,55.5 35.4,55.5 35.5,55.5 	"/>
	<path class="st97" d="M14.2,19.4c-0.1,0.2-0.2,0.3-0.3,0.3C13.9,19.5,14,19.4,14.2,19.4z"/>
	<path class="st97" d="M13.8,19.7c-0.1,0.1-0.2,0.2-0.3,0.3C13.6,19.8,13.7,19.7,13.8,19.7z"/>
	<path class="st76" d="M12.9,20.6c-0.1,0.1-0.2,0.2-0.2,0.4C12.8,20.8,12.9,20.7,12.9,20.6z"/>
	<path class="st41" d="M25,20.6c0,0.1,0,0.2,0,0.3c-0.1,0-0.2,0-0.3,0C24.8,20.8,24.9,20.7,25,20.6z"/>
	<path class="st42" d="M31.4,56.1c0.1,0,0.2,0,0.3,0c0,0.1,0,0.2,0,0.3c-0.1,0-0.2,0-0.3,0C31.3,56.2,31.3,56.1,31.4,56.1z"/>
	<path class="st121" d="M14.6,38.5c0-0.1,0-0.1,0-0.2c0.1,0.1,0.1,0.1,0.2,0.2C14.7,38.6,14.6,38.6,14.6,38.5z"/>
	<path class="st29" d="M17.4,21.4c0.1-0.1,0.2-0.2,0.3-0.3c0,0,0.1,0.1,0.1,0.1c0,0.1,0,0.1,0,0.2c0,0-0.1,0.1-0.1,0.1
		c-0.1,0-0.1,0-0.2,0C17.5,21.5,17.5,21.5,17.4,21.4z"/>
	<path class="st38" d="M25.3,22.4c-0.1,0.1-0.2,0.2-0.3,0.3c0,0,0,0,0,0C24.9,22.4,25,22.3,25.3,22.4C25.3,22.4,25.3,22.4,25.3,22.4
		z"/>
	<path class="st56" d="M69,23c0.1,0.1,0.2,0.2,0.3,0.3C69.2,23.2,69.1,23.1,69,23z"/>
	<path class="st56" d="M70.2,23.3c-0.1-0.1-0.2-0.2-0.3-0.3C70,23.1,70.1,23.2,70.2,23.3z"/>
	<path class="st122" d="M71.7,41c0.4,0,0.8,0,0.8,0.6c-0.2,0.2-0.3,0.4-0.3,0.7C71.8,42,71.7,41.5,71.7,41z"/>
	<path class="st90" d="M80.7,47.1c-0.4,0.1-0.8,0.2-1.2,0.2c0.1-0.2,0.2-0.4,0.3-0.6c-0.2-0.1-0.1-0.3,0.1-0.3c0.2,0,0.4,0,0.5,0
		C80.5,46.6,80.6,46.8,80.7,47.1z"/>
	<path class="st12" d="M77.8,39.8c0.5,0.5,0.6,1.1,0.6,1.8C78,41.1,77.7,40.5,77.8,39.8z"/>
	<path class="st90" d="M78.7,47.3c-0.1,0-0.3,0.1-0.4,0.1c-0.4-0.1-0.9-0.2-1.2-0.6C77.7,46.7,78.2,46.9,78.7,47.3z"/>
	<path class="st46" d="M76,34c0.1,0.1,0.2,0.3,0.2,0.4c0.1,0.1,0.2,0.2,0.2,0.4c0,0.1,0,0.1,0.1,0.2c0.1,0.2,0.1,0.4,0,0.6
		C76,35.2,75.9,34.7,76,34z"/>
	<path class="st109" d="M79.9,46.4c0,0.1,0,0.2-0.1,0.3c-0.4-0.5-0.3-1-0.3-1.5C79.9,45.5,79.8,46,79.9,46.4z"/>
	<path class="st95" d="M77.1,37.4c0.4,0.4,0.3,1,0.3,1.5C77,38.5,77.2,37.9,77.1,37.4z"/>
	<path class="st46" d="M74.1,31.7c0.4,0.2,0.4,0.6,0.6,0.9C73.6,32.9,74.3,32,74.1,31.7z"/>
	<path class="st46" d="M74.1,34.1c-0.1-0.2-0.2-0.4-0.3-0.6c0.2,0,0.4-0.2,0.5,0C74.5,33.7,74.3,34,74.1,34.1z"/>
	<path class="st95" d="M76.9,36.2c0.3,0.4,0.3,0.8,0.2,1.2C76.7,37.1,76.8,36.6,76.9,36.2z"/>
	<path class="st46" d="M75,32.9c0.4,0.1,0.6,0.2,0.6,0.6C75.3,33.4,75.1,33.2,75,32.9z"/>
	<path class="st109" d="M79.2,44.3c0.3,0.2,0.3,0.5,0.3,0.9C79.2,45,79.2,44.7,79.2,44.3z"/>
	<path class="st123" d="M72.6,42.8c-0.2-0.1-0.3-0.3-0.4-0.5C72.5,42.4,72.6,42.5,72.6,42.8z"/>
	<path class="st123" d="M73.8,44.6c-0.3-0.1-0.4-0.3-0.3-0.6C73.7,44.2,73.8,44.4,73.8,44.6z"/>
	<path class="st29" d="M75.9,46.1c-0.3,0-0.5-0.1-0.6-0.3C75.6,45.8,75.8,45.9,75.9,46.1z"/>
	<path class="st123" d="M73.5,44c-0.2-0.1-0.3-0.3-0.3-0.6C73.4,43.6,73.5,43.8,73.5,44z"/>
	<path class="st29" d="M75.3,45.8c-0.3,0-0.5-0.1-0.6-0.3C75,45.5,75.2,45.6,75.3,45.8z"/>
	<path class="st90" d="M77.1,46.7c-0.3,0-0.5-0.1-0.6-0.3C76.8,46.4,77,46.5,77.1,46.7z"/>
	<path class="st25" d="M76.6,35.6c0-0.2,0-0.4,0-0.6c0.2,0.2,0.3,0.4,0.3,0.6C76.7,35.6,76.6,35.6,76.6,35.6z"/>
	<path class="st46" d="M74.7,32.6c0.2,0,0.3,0.1,0.3,0.3C74.9,32.8,74.8,32.7,74.7,32.6z"/>
	<path class="st46" d="M75.6,33.5c0.1,0.1,0.2,0.2,0.2,0.3C75.8,33.7,75.7,33.6,75.6,33.5z"/>
	<path class="st119" d="M20.2,25.7c0.5-0.2,1-0.4,1.5,0c0,0,0.1,0.1,0.1,0.1c0,0.2-0.1,0.3-0.1,0.5c0,0.1,0,0.2,0.1,0.3
		c0.1,0.1,0.1,0.2,0.2,0.3l0.1,0c-0.4,1.5-1.9,1.4-3,1.7c-0.1-0.1-0.3-0.2-0.4-0.3c-0.1-0.8-0.9-0.9-1.3-1.4c0-0.1,0-0.3,0.1-0.4
		c0.1-0.1,0.2-0.2,0.3-0.3c0.3-0.4,0.9,0,1.2-0.3l0,0C19.3,25.7,19.8,26,20.2,25.7z"/>
	<path class="st96" d="M19.9,22.7c0.5,0,0.9-0.3,1.4-0.5c0.5-0.2,0.7,0.1,0.8,0.5c0.1,0.3-0.2,0.4-0.4,0.5c-0.1,0-0.2,0-0.3,0
		c-0.3,0.2-0.7,0-0.9,0.3l0,0c-0.5,0.1-1.1,0.5-1.4-0.4c0-0.3,0.1-0.5,0.3-0.6C19.6,22.6,19.7,22.6,19.9,22.7z"/>
	<path class="st107" d="M19.3,23c0.1,0.8,0.7,0.5,1.2,0.6c-0.4,0.5-1,0.4-1.5,0.6c-0.5,0.4-1,0.1-1.5,0c-0.2-0.3-0.6-0.3-0.9-0.3
		c-0.1-0.2,0-0.4,0.1-0.5c0.2-0.1,0.4-0.1,0.6-0.1c0.2-0.1,0.3-0.2,0.5-0.3c0.2-0.1,0.4-0.3,0.7-0.4c0.1,0,0.3,0,0.4,0
		c0.1,0,0.2,0.1,0.3,0.2C19.2,22.8,19.3,22.9,19.3,23z"/>
	<path class="st124" d="M17.5,26.6c0,0.1,0,0.2,0,0.3c0.3,0.3,0.3,0.7,0.1,1.1c-0.1,0.1-0.2,0.2-0.3,0.3c-0.1,0.1-0.3,0.1-0.4,0.2
		c-0.8,0.3-1.6,0.4-2.3,0.5c-0.1,0-0.3-0.1-0.4-0.1c-0.2-0.1-0.4-0.2-0.5-0.4c0.2-0.6,0.7-0.7,1.2-0.7C16,28,16.8,27.6,17.5,26.6z"
		/>
	<path class="st125" d="M17.5,24.2c0.5-0.3,1,0.1,1.5,0c-0.1,0.2-0.2,0.4-0.2,0.5c0.1,0.5-0.3,0.8-0.7,0.8c-0.6,0-0.3-0.5-0.3-0.8
		c0-0.2-0.2-0.3-0.4-0.3C17.5,24.4,17.5,24.3,17.5,24.2z"/>
	<path class="st79" d="M24.1,23c0,0.1,0,0.2,0.1,0.3c0.2,0.7,0.1,0.9-0.7,0.7c-0.2-0.1-0.4,0-0.6,0C23.1,23.4,23.7,23.2,24.1,23z"/>
	<path class="st26" d="M21.7,23.3c0.1-0.2,0.2-0.4,0.4-0.5c0.6-0.1,0.7-0.8,1.1-1C23.3,22.9,22.5,23.1,21.7,23.3z"/>
	<path class="st119" d="M22.3,24.6c0,0.4,0,0.8-0.3,1.2c-0.1,0.2-0.2,0.1-0.3,0l-0.1-0.1C22,25.3,21.9,24.8,22.3,24.6z"/>
	<path class="st126" d="M26.2,21.5c-0.1,0.4-0.5,0.5-0.9,0.6c-0.1,0.1-0.2,0.1-0.3,0C25.3,21.7,25.7,21.5,26.2,21.5z"/>
	<path class="st114" d="M20.2,25.7C19.9,26.1,19.4,26,19,26C19.3,25.6,19.8,25.7,20.2,25.7z"/>
	<path class="st114" d="M19,26c-0.3,0.4-0.8,0.3-1.2,0.3C18.1,25.9,18.6,26,19,26z"/>
	<path class="st79" d="M25,22.1c0.1,0,0.2,0,0.3,0c0,0.1,0,0.2-0.1,0.2c-0.1,0.1-0.2,0.2-0.3,0.3c-0.2,0-0.4,0-0.6,0
		C24.5,22.4,24.8,22.3,25,22.1z"/>
	<path class="st44" d="M13.6,28.4c0.2,0,0.4,0,0.5-0.1c0.1,0.5-0.1,0.7-0.6,0.6c0-0.1,0-0.2,0-0.3C13.5,28.6,13.6,28.5,13.6,28.4z"
		/>
	<path class="st107" d="M20.5,23.6c0.2-0.3,0.6-0.3,0.9-0.3C21.2,23.6,20.9,23.7,20.5,23.6z"/>
	<path class="st79" d="M24.4,22.7c-0.1,0.1-0.2,0.2-0.3,0.3C24.1,22.8,24.2,22.7,24.4,22.7z"/>
	<path class="st120" d="M53,24.8c0.2,0,0.6-0.1,0.7,0.1c0.1,0.3-0.3,0.5-0.4,0.7c-0.1,0-0.2,0-0.3,0c-0.2,0.1-0.1,0.4-0.3,0.6l0,0
		c-0.4,0.2-0.7,0.7-1.2,0.3c-0.3,0-0.5,0-0.8,0c-0.1,0-0.1,0-0.2,0c-0.7-0.2-1.3,0-2,0.2c-0.5,0.1-1.1,0.2-1.4-0.4
		c0,0-0.1-0.1-0.1-0.1c0.1-0.2,0.3-0.4,0.3-0.7c0.1-0.4,0.3-0.4,0.7-0.3C49.7,26,51.4,25.9,53,24.8z"/>
	<path class="st127" d="M47,32.6c0-0.4,0-0.8,0-1.2c0-0.2-0.2-0.5,0.2-0.6c0.1,0,0.3,0.3,0.4,0.5c0.2,0.3,0.4,0.6,0.6,0.9
		c0.3,0.4,0.1,1,0.2,1.4c0.1,0.4,0.1,0.8,0.1,1.2c-0.1,0.3-0.4,0.5-0.7,0.6c-0.2,0-0.3,0-0.4-0.1c-0.2-0.2-0.2-0.4-0.2-0.6
		c0.1-0.4,0.2-0.8,0.1-1.2c-0.1-0.2,0-0.5-0.2-0.8C47,32.8,47,32.7,47,32.6z"/>
	<path class="st110" d="M47.6,29.6c0-0.1,0-0.2,0-0.4c-0.2-0.4-0.1-0.8,0.2-1.1c0.6-0.4,1.2-0.7,1.9-0.4c0,0.5,0,1,0,1.5
		c0,0.4,0.2,1.1-0.3,1.2c-0.4,0.1-0.4-0.6-0.5-0.9C48.4,28.6,48,29.5,47.6,29.6z"/>
	<path class="st128" d="M49.7,27.8c-0.3,0.4-0.5,1-1.2,0.6c-0.1,0-0.2,0.1-0.3,0.2c-0.4-1.1-0.4-1.4,0.5-1.7
		c0.6-0.3,1.2-0.7,1.9-0.4c0.1,0,0.1,0.1,0.2,0.1C50.4,27,50,27.4,49.7,27.8z"/>
	<path class="st76" d="M51.5,26.6c0.4-0.1,0.8-0.2,1.2-0.3c-0.1,0.2-0.2,0.4-0.2,0.5c-0.1,0.4,0,1-0.7,0.9
		C51.1,27.6,51.5,27,51.5,26.6z"/>
	<path class="st129" d="M48.2,33.8c0-0.5,0-1,0-1.5c0.5,0.4,0.2,1,0.3,1.5c-0.1,0-0.1,0.1-0.2,0.1C48.3,33.9,48.3,33.8,48.2,33.8z"
		/>
	<path class="st129" d="M48.5,33.8c0.3,0.2,0.3,0.6,0.3,0.9l-0.1,0.1C48.1,34.6,48.4,34.2,48.5,33.8L48.5,33.8z"/>
	<path class="st76" d="M52.7,26.3c0-0.2,0.1-0.5,0.3-0.6C53,26,52.9,26.2,52.7,26.3z"/>
	<path class="st27" d="M61.2,17.9c0,0.1,0,0.2,0,0.3c-0.7,0.1-1.3,0.8-2.1,0.3c-0.1-0.1-0.3,0.3-0.5,0.2c-0.9-0.1-0.3,1.3-1,1.1
		C57,19.7,56.7,19,56,19.1c0.1-0.1,0.2-0.1,0.2-0.2c0.5-0.8,1.4-1.1,2.2-1.3C59.6,16.8,60.2,16.9,61.2,17.9L61.2,17.9z"/>
	<path class="st93" d="M61.1,17.8c-0.8-0.6-1.7-0.7-2.6-0.2c-0.4-0.3-0.1-1.2-1-1c0.1-0.1,0.2-0.1,0.2-0.2c0.8-0.5,1.3,0.6,1.9,0.4
		c0.6-0.2,0.9-0.9,1.8-0.5c0.5,0.2,0.9-0.2,0.9-0.8c0.9,0.1,0.9,0.1,0.6,1.1C62.2,16.9,61,16.4,61.1,17.8z"/>
	<path class="st130" d="M49.4,22.4c0.1,0,0.2,0,0.3,0c0.1,0.1,0.3,0.1,0.4,0.2c0.3,0.3,0.6,0.7,0.5,1.1c-0.2,0.5-0.7,0.5-1.1,0.5
		l0,0c-0.4-0.2-0.9,0.1-1.2-0.2l0,0c-0.4-0.4,0.1-1.1-0.3-1.5l0,0c0.2-0.4,0.6-0.3,1-0.4c0.1,0,0.2,0.1,0.2,0.1
		C49.2,22.2,49.3,22.3,49.4,22.4z"/>
	<path class="st131" d="M51.1,22.2c0.1-0.2,0.2-0.5,0.5-0.4c0.2,0,0.2,0.3,0.2,0.5c0,0.2-0.1,0.4-0.4,0.4
		C51.3,22.6,51.1,22.4,51.1,22.2z"/>
	<path class="st60" d="M31.9,57.8c0.1,0,0.2,0,0.3,0c1.3,0.3,1.4,0.4,1.5,1.5c-0.7,0.6-1.4,0.1-2.2,0l0,0c-0.2-0.2-0.5-0.2-0.3-0.6
		C31.5,58.4,31.7,58.1,31.9,57.8z"/>
	<path class="st132" d="M35.5,59.4c0.1,0.4,0.2,0.8,0.4,1.1c-1.1-0.3-2.2-0.6-3.4-0.8c0.6-0.3,1.3-0.2,2-0.6
		C34.8,58.9,35.2,59,35.5,59.4z"/>
	<path class="st23" d="M35.5,59.4c-1,0-2,0.3-3,0.3c-0.3-0.1-0.7,0-0.9-0.3c0.7-0.2,1.5,0.3,2.1-0.3c0.7-0.7,1.4-0.8,1.9,0.3
		C35.6,59.3,35.5,59.4,35.5,59.4z"/>
	<path class="st23" d="M31.3,58.7c0.1,0.2,0.2,0.4,0.3,0.6C31.3,59.3,31,59.2,31.3,58.7z"/>
	<path class="st28" d="M55.7,22.1c0-0.5,0.6-0.8,0.6-1.3c0-0.2,0.2-0.4,0.4-0.3c0.2,0.1,0.3,0.3,0.3,0.5c0,0.7-0.1,1.4-0.1,2
		C55.4,24.2,56.2,22.3,55.7,22.1z"/>
	<path class="st106" d="M26.2,46.1c0.2-1.5,1.3-2,2.7-2.1c0,0.1,0,0.2,0,0.3C28,44.9,27.6,46.3,26.2,46.1z"/>
	<path class="st106" d="M23.2,46.1c0.2-0.2,0.4-0.3,0.6-0.2c0.7,0.2,1.4,0.2,2.1,0.2C25,46.8,24.1,46.3,23.2,46.1z"/>
	<path class="st4" d="M47.9,22.4c0.6,0.4,0.2,1,0.3,1.5C47.7,23.5,48,22.9,47.9,22.4z"/>
	<path class="st4" d="M48.2,23.9c0.4,0,0.9-0.2,1.2,0.2C49,24.2,48.5,24.3,48.2,23.9z"/>
	<path class="st133" d="M22.9,54c0,0.1,0,0.2,0,0.2c0,0.1,0,0.2-0.1,0.4c-0.3,0-0.6,0.2-0.9,0.3c0-1.1,0-2.2,0-3.3
		c0.4-0.2,0.8-0.4,0.9,0.2C22.9,52.5,22.9,53.2,22.9,54z"/>
	<path class="st124" d="M14.7,56.7c-0.5,0-0.9-0.1-1.4-0.1c-0.1-0.1-0.2-0.2-0.4-0.2c-0.2-0.1-0.4-0.2-0.3-0.4
		c0.1-0.3,0.4-0.2,0.6-0.2c0.9,0.5,1.8,0.1,2.7,0.2C15.7,56.5,15,56.1,14.7,56.7z"/>
	<path class="st92" d="M20.5,54.5c0.1-0.1,0.2-0.2,0.3-0.3c0.3,0.2,0.5,0.6,0.9,0.6c-0.6,0.2-1,1-1.8,0.6
		C20.3,55.3,20.5,55,20.5,54.5z"/>
	<path class="st80" d="M29.2,43.4c0.4-0.9,1.7-0.8,2.1-1.8c0.3,0.1,0.8,0.2,0.8,0.6c0,0.4-0.5,0.5-0.8,0.5c-0.5,0.1-1.1,0.2-1.4,0.6
		C29.6,43.6,29.4,43.6,29.2,43.4z"/>
	<path class="st68" d="M28,41c0.6,0.5,1.4,0.2,2.1,0.2c0.3,0.1,0.7,0,0.9,0.3c-1.5,0.2-3-0.2-4.5,0.3C26.7,40.9,26.8,40.8,28,41z"/>
	<path class="st106" d="M29.2,43.4c0.2,0,0.4,0,0.6,0c-0.2,0.3-0.6,0.4-0.9,0.6c0-0.1,0-0.2,0-0.3C29,43.6,29.1,43.5,29.2,43.4z"/>
	<path class="st10" d="M23.2,47.9c0.1-0.1,0.2-0.2,0.3-0.3C23.4,47.7,23.3,47.8,23.2,47.9z"/>
	<path class="st134" d="M17.5,45.8c0.1,0.1,0.2,0.2,0.3,0.3c-0.2,0.5-0.6,0.5-0.9,0.2c-0.3-0.2-0.5-0.5-0.8-0.5
		c-0.4-0.4-1.2-0.5-1.3-1.3c0-0.3-0.6-0.6,0-0.9c0.4-0.3,0.8-0.1,1.1,0.2C16.3,44.5,16.9,45.2,17.5,45.8z"/>
	<path class="st135" d="M35.6,59.3C35,58.8,34.4,59,33.7,59c-0.8,0-1.2-0.5-1.5-1.2l0,0c0.5-0.5,0.7-1.3,1.5-1.5
		c1.2-0.3,1.2-0.3,2.1,0.9c0.4,0.5,0.9,0.9,1.2,1.5l0,0c-0.3,0.9-0.3,0.9-1.2,0.6C35.8,59.3,35.7,59.3,35.6,59.3z"/>
	<path class="st27" d="M33.7,56.3c-0.5,0.5-0.8,1.2-1.5,1.5c0-0.1,0.1-0.3,0.1-0.4C32.3,56.4,32.9,56.2,33.7,56.3z"/>
	<path class="st136" d="M35.8,59.3c0.5,0,1-0.1,1.2-0.6c0.4,0.3,0.1,0.6,0,0.9C36.4,60.2,36.4,60.2,35.8,59.3z"/>
	<path class="st136" d="M37.1,58.7c-0.6-0.4-1.1-0.8-1.2-1.5C36.4,57.6,36.9,58,37.1,58.7z"/>
	<path class="st137" d="M47.6,35.3c0.2-0.2,0.4-0.3,0.6-0.3c0.3,0,0.7,0,0.9,0.4c0.1,0.2,0.2,0.4,0.3,0.6c1,1.2,0.5,2.1-0.6,2.9
		c0.2,0.5,0,0.9-0.1,1.4c-0.1,0.3-0.2,0.6-0.4,0.9c-0.5,0.8-1,1.6-1.6,2.3c-0.6,0.6-1.2,1-2,1.2c-0.2,0.1-0.4,0.2-0.6,0.3
		c-0.1,0.1-0.3,0.1-0.4,0.2c-1.3,0.4-2.6,0.1-3.8,0.2c-0.2,0-0.4,0.1-0.6,0.1c-0.4,0-0.6-0.2-0.8-0.5c-0.2-0.4-0.9-0.4-1-1
		c0-0.4,0-0.8,0.6-0.9c0.1,0,0.2,0,0.2,0c1.2,0.1,2.5,0.2,3.7,0.2c0.3,0,0.6,0.1,0.8-0.2c0.2-0.1,0.4-0.2,0.6-0.3
		c1.4-1,1.4-1.5,0.3-2.1c-0.5-0.1-1-0.1-1.5,0c-0.3,0-0.6,0-0.9,0c-0.8,0-0.8,0-0.3-0.9c0.9-0.5,1.8-1.2,3-0.9
		c0.5-0.1,0.8,0.2,1.1,0.4c0.1,0.1,0.3,0.1,0.4,0.2c0.1-0.1,0.2-0.1,0.2-0.1c0.2-0.1,0.3-0.3,0.4-0.5c0.1-0.2,0.1-0.4,0.2-0.5
		c0.1-0.1,0.2-0.2,0.3-0.3c0.1-0.1,0.3-0.2,0.5-0.4c0.3-0.3,0.3-0.7,0.2-1c0-0.1,0-0.3,0-0.4C47.1,35.9,47.3,35.6,47.6,35.3z"/>
	<path class="st128" d="M37.4,44c0.4,0.2,0.8,0.4,1.2,0.6c0.2,0.4,0.1,0.7-0.3,0.9c-0.8-1.2-2.2-0.8-3.3-1.2c-0.2-0.1-0.4,0-0.6,0
		c0.2-0.2,0.4-0.3,0.5-0.5C36.2,42.8,36.3,42.8,37.4,44z"/>
	<path class="st113" d="M37.1,42.5c0.8,0.1,1.6,0.2,2.4,0.3c0,0.1,0,0.2,0.1,0.2c-0.5,0.3-1,0.3-1.5,0l0,0
		C37.7,42.9,37.4,42.7,37.1,42.5z"/>
	<path class="st128" d="M34.4,44.3c-0.1,0.1-0.2,0.2-0.3,0.3C34.1,44.5,34.3,44.4,34.4,44.3z"/>
	<path class="st82" d="M28,41c-0.7-0.1-1.2,0.3-1.5,0.9c-0.2,0.1-0.4,0.2-0.6,0.3c-0.9-0.1-0.9-0.9-1-1.5c0.2,0,0.3,0.4,0.6,0.2
		C26.4,40.6,27,40.6,28,41z"/>
	<path class="st4" d="M57.2,57c0.2,0,0.4,0,0.6,0C57.7,57.2,57.4,57.2,57.2,57z"/>
	<path class="st4" d="M56.6,57.2c0.1-0.1,0.2-0.2,0.3-0.2C56.8,57,56.7,57.1,56.6,57.2z"/>
	<path class="st138" d="M26.7,58.8c-0.4,0.4-0.9,0.2-1.4,0.3c-0.2-0.3-0.2-0.6,0.3-0.6C26,58.5,26.4,58.7,26.7,58.8z"/>
	<path class="st6" d="M66.4,54c0.3-0.1,0.6-0.3,0.8-0.6c1,0.4,0.4,1.1,0.3,1.7c-0.1,0.1-0.2,0.3-0.2,0.4c-0.1,0.3,0,0.8-0.6,0.6
		C66.2,56,66,55.7,66,55.3C66.1,54.8,66.3,54.4,66.4,54z"/>
	<path class="st134" d="M55.1,58.2c-0.2,1-0.4,2-0.9,2.9c-0.5,0.1-0.7-0.2-0.8-0.6c-0.2-0.5-0.4-1-0.5-1.5c0-0.5,0-1,0-1.5
		c0-0.2,0-0.4,0.3-0.5c0.2-0.1,0.4,0,0.5,0.2c0.2,0.6,0.8,0.5,1.3,0.6C54.9,57.9,55,58,55.1,58.2L55.1,58.2z"/>
	<path class="st4" d="M55.1,58.2c-0.1-0.1-0.2-0.2-0.3-0.3c0.1,0,0.2,0,0.3,0C55.1,58,55.1,58.1,55.1,58.2z"/>
	<path class="st69" d="M64.4,57.8c-0.2,0-0.3,0-0.5,0c0-0.2-0.1-0.4-0.1-0.6c0-0.3,0.2-0.8,0.6-0.7c0.5,0.1,0.2,0.6,0.1,0.9
		C64.5,57.5,64.5,57.6,64.4,57.8z"/>
	<path class="st139" d="M18.7,23.3c-0.3,0-0.6,0-0.9,0c-0.1,0.1-0.2,0.2-0.3,0.3c-0.2,0-0.4,0-0.6,0c-0.2-0.3,0.1-0.4,0.3-0.6l0,0
		c0.1-0.1,0.2-0.2,0.3-0.3c0-0.1,0-0.2,0-0.3c-0.2-0.2-0.2-0.4,0-0.6l0,0c0.1-0.1,0.2-0.2,0.3-0.3l0,0c0.4-0.4,1,0,1.5-0.3
		c0.3-0.1,0.6-0.2,0.9-0.2c0.4-0.1,0.9-0.2,1.3-0.3c0.2,0,0.5-0.1,0.6,0.2c0.1,0.3-0.1,0.5-0.3,0.7c-0.3,0.2-0.7,0.2-1,0.2
		c-0.6,0-0.9,0.3-1,0.9c-0.1,0-0.2,0-0.2,0c-0.2,0.1-0.5,0.1-0.6,0.3l0,0C18.9,23.1,18.8,23.2,18.7,23.3z"/>
	<path class="st125" d="M17.2,23c-0.1,0.2-0.2,0.4-0.3,0.6c-0.1,0.1-0.2,0.2-0.3,0.3c-0.2,0-0.5,0.3-0.5-0.2
		C16.2,23.2,16.6,22.9,17.2,23z"/>
	<path class="st125" d="M17.5,21.8c0,0.2,0,0.4,0,0.6C17.2,22.2,17.2,22,17.5,21.8z"/>
	<path class="st125" d="M17.8,21.5c-0.1,0.1-0.2,0.2-0.3,0.3c0-0.1,0-0.2,0-0.3C17.6,21.5,17.7,21.5,17.8,21.5z"/>
	<path class="st125" d="M17.5,22.7c-0.1,0.1-0.2,0.2-0.3,0.3C17.3,22.9,17.4,22.8,17.5,22.7z"/>
	<path class="st82" d="M25,40.7c-0.1-0.1-0.2-0.2-0.3-0.3C24.8,40.5,24.9,40.6,25,40.7z"/>
	<path class="st139" d="M19,28.4c1-0.5,1.9-1.2,3-1.5c0.4,0,0.8,0,0.8,0.6c0,0.4,0,0.9,0,1.3c0,0.6-0.2,0.6-0.6,0.3
		c-0.4-0.3-0.9-0.2-1.3-0.3c-0.9-0.1-1.5,0.5-1.7,1.6c0.1,0.1,0.2,0.2,0.3,0.3c-0.5,0.5-1,0.3-1.5-0.1c-0.5-0.5-1.1-0.6-1.8-0.4
		c-0.3,0-0.5,0-0.7,0.2l-0.1,0l-0.1,0c-0.2-0.3-0.6-0.2-0.9-0.3c-0.1-0.1-0.1-0.2-0.1-0.4c0.1-0.3,0.3-0.4,0.6-0.5
		c0.1-0.1,0.3-0.2,0.4-0.3c0.2-0.1,0.3-0.1,0.5-0.2c0.1,0,0.2,0,0.3-0.1c0.2-0.1,0.3-0.1,0.5-0.2c0.1,0,0.2-0.1,0.3-0.1
		c0.3-0.1,0.5-0.3,0.8-0.4c0.1,0,0.3,0,0.4,0C18.5,28.2,18.7,28.4,19,28.4z"/>
	<path class="st45" d="M21.7,25.7c0.1,0,0.2,0,0.3,0c0,0.3,0.1,0.6,0.3,0.9c-0.1,0.1-0.2,0.2-0.4,0.3c-0.1,0-0.2,0-0.3,0
		c-0.2-0.2-0.4-0.4-0.6-0.6C21.3,26.1,21.5,25.9,21.7,25.7z"/>
	<path class="st70" d="M13.3,30.6c-1,0.3-2,0.6-3,0.6c0,0-0.1-0.1-0.1-0.1c0.7-1,1.4-1.3,2.9-0.9C13.2,30.3,13.3,30.4,13.3,30.6z"/>
	<path class="st70" d="M13.8,30.5c-0.2,0-0.3,0.1-0.5,0.1c0,0-0.1-0.1-0.1-0.1c0.1-0.4,0.3-0.4,0.6-0.3c0.1,0.1,0.1,0.2,0.1,0.2
		C13.9,30.4,13.9,30.5,13.8,30.5z"/>
	<path class="st114" d="M14.5,30c0,0.1,0,0.2,0,0.2c-0.1,0-0.2,0-0.3,0c0,0-0.1-0.1-0.1-0.1c0-0.1,0-0.2,0.1-0.3
		C14.3,29.8,14.4,29.9,14.5,30z"/>
	<path class="st114" d="M13.8,30.5c0-0.1,0-0.2,0-0.3c0.1-0.1,0.1-0.1,0.2-0.1c0,0,0.1,0.1,0.1,0.1C14.1,30.3,13.9,30.4,13.8,30.5z"
		/>
	<path class="st89" d="M27.1,13.4c0,0.2-0.1,0.5-0.3,0.6C26.8,13.7,26.9,13.5,27.1,13.4z"/>
	<path class="st97" d="M37.3,9.8c0.1,0.2,0.4,0.5,0.4,0.6c-0.1,0.3-0.4,0-0.6,0c-0.8,0-1.6-0.1-2.4-0.1c0-0.2-0.7-0.4,0-0.5
		C35.5,9.7,36.4,9.8,37.3,9.8z"/>
	<path class="st140" d="M49.1,38.9c0.2-0.2,0.4-0.3,0.6-0.2c0.5,1.4,0.8,2.9,1.7,4.2c0.1,0.2,0.3,0.4,0.5,0.5
		c0.5-0.3,0.8,0.1,1.2,0.4c1,0.8,2,1.7,3,2.5c0.1,0.1,0.2,0.3,0.2,0.4c0,0.2,0,0.3,0,0.5c-0.5,1.4-1.6,0.7-2.5,0.8
		c-0.4-0.1-0.5-0.4-0.6-0.8c-0.2-0.9-0.9-1-1.6-0.9c-1.1,0.2-2.2,0.3-3.3,0c-0.9-0.2-1.1,0.7-1.6,1.1c-0.3,0.3-0.7,0.3-1.1,0.2
		c-0.2-0.1-0.4-0.2-0.6-0.3c-0.9-1-1-2-0.2-3.1c0.4-0.4,0.9-0.7,1.5-0.8c1.1-0.1,1.8-0.6,1.6-1.8c0-0.2,0.1-0.4,0.2-0.6
		c0-0.1,0.1-0.3,0.1-0.4C48.4,40.1,48.6,39.4,49.1,38.9z"/>
	<path class="st118" d="M55.4,46.7c-1.2-1.1-2.4-2.2-3.5-3.4c-0.1-0.4-0.1-0.8,0.5-0.8c0.2,0.1,0.4,0.2,0.6,0.3
		c0.2,0.2,0.4,0.4,0.7,0.5c0.1,0.9,1,1.3,1.5,1.9c0.4,0.4,1,0.7,0.7,1.5C55.7,46.9,55.5,46.9,55.4,46.7z"/>
	<path class="st25" d="M76.5,34.8c-0.1-0.1-0.2-0.2-0.2-0.4C76.3,34.5,76.4,34.7,76.5,34.8z"/>
	<path class="st82" d="M47.9,50.6c-1.4,0-2.8,0-4.2,0c-0.5,0-1.1,0.2-1.5-0.3c0.3-0.6,0.8-0.6,1.4-0.7c1.5-0.1,3-0.1,4.4,0
		c0.6,0,1.2,0.1,1.5,0.8c-0.2,0.6-0.6,0.3-1,0.2C48.3,50.7,48.1,50.6,47.9,50.6z"/>
	<path class="st74" d="M48.5,50.7c0.3,0,0.6,0,0.9-0.1c0.2-0.3,0.4-0.5,0.7-0.6c0.6-0.1,1,0.3,1.5,0.5c0.1,0.1,0.2,0.2,0.3,0.3
		c0,0.1,0,0.3,0,0.4C50.7,51.1,49.6,51.1,48.5,50.7z"/>
	<path class="st82" d="M51.9,51.2c0-0.1,0-0.2,0-0.3c0.4-0.4,0.8-0.4,1.2,0c0,0,0.1,0.1,0.1,0.1C52.7,51.3,52.3,51.3,51.9,51.2z"/>
	<path class="st97" d="M15.1,19.4c-0.1,0.1-0.2,0.2-0.3,0.3C14.9,19.6,15,19.5,15.1,19.4z"/>
	<path class="st97" d="M14.8,19.7c-0.1,0.1-0.2,0.2-0.3,0.3C14.6,19.9,14.7,19.8,14.8,19.7z"/>
	<path class="st97" d="M14.5,20c-0.1,0.1-0.2,0.2-0.3,0.3C14.3,20.2,14.4,20.1,14.5,20z"/>
	<path class="st141" d="M14.1,30.1c-0.1,0-0.2,0-0.2,0.1c-0.2,0.1-0.4,0.2-0.6,0.2c-1,0.1-2,0.3-3,0.6c-0.6,0.1-1-0.1-1.5-0.3
		c-0.4-0.2-0.4-0.5-0.2-0.8c0.6-0.4,1.2-0.3,1.8-0.3c1.1-0.3,2.1-0.7,3.3-0.6c0.3-0.1,0.5-0.3,0.6-0.6l0,0c0.7-0.2,1.5-0.1,2.2-0.1
		c0.3,0.1,0.4,0.3,0.4,0.5c-0.1,0.3-0.3,0.4-0.5,0.5l0,0c-0.7,0.2-1.4,0.3-2.1,0.6C14.1,30,14.1,30,14.1,30.1z"/>
	<path class="st130" d="M53,50.9c-0.4,0-0.8,0-1.2,0l0,0c-0.5-0.3-0.9-0.6-1.5-0.3c-0.3,0-0.6,0-0.9,0c-0.5-0.4-1-0.3-1.6-0.3
		c-1.9,0-3.8,0-5.7,0l0,0c-0.5-0.1-0.9-0.6-1.5-0.3l0,0c-0.9,0.4-1.8,0-2.7,0.2c-0.7,0-1.4,0-2.1,0c-0.2-0.1-0.4-0.2-0.5-0.4
		c-0.3-0.2-0.2-0.5-0.1-0.8l0,0c0.1-0.1,0.2-0.2,0.3-0.3l0,0c0.2-0.2,0.4-0.3,0.6-0.5c0.6-0.3,1.1-0.5,1.7-0.4c0.3,0,0.5,0,0.8-0.1
		c0.1-0.1,0.2-0.1,0.4-0.1c0.5-0.1,1.1,0.2,1.5-0.3c0.1-0.1,0.3-0.1,0.4-0.1c0.1,0,0.1,0,0.1,0c1.1,0.8,2.4,0.7,3.7,0.6
		c1.1,0,2.2,0.4,3.3-0.2c0.4-0.2,1.2-0.1,1.8,0.2c0.5,0.2,1.1,0.2,1.6,0.3c0.1,0.1,0.3,0.1,0.4,0.1c0.4,0,0.9,0.2,1.3,0.2
		c1.3,0.1,1.5,0.3,1,1.6c0,0.1-0.1,0.1-0.1,0.2c-0.1,0-0.1,0.1-0.2,0.1C53.6,50.5,53.3,50.7,53,50.9z"/>
	<path class="st82" d="M54.2,50c-0.2-1.3-0.3-1.4-1.4-0.9c-0.6,0.3-1.1,0.5-1.6,0c0.7-1,1.5-1.7,3-1.2c1,0.3,2.1,0.1,3-0.4
		c0.7-0.2,1.1,0.1,1.4,0.7c0,0.1,0,0.2,0,0.3c-0.6,0.3-1.2,0.6-1.9,0.5C55.8,48.9,55,49.5,54.2,50z"/>
	<path class="st130" d="M58.7,48.2c-0.5-0.1-1-0.2-1.4-0.3c-0.9,0.3-1-0.6-1.5-0.9l0,0c-0.1,0-0.1-0.1-0.1-0.2c0-0.1,0-0.1,0.1-0.1
		c-0.6-1-1.6-1.6-2.3-2.5c-0.4-0.4-0.3-0.7,0.3-0.8l0,0c0.1,0.2,0.4,0.1,0.6,0.3l0,0c0.1,0.1,0.2,0.2,0.3,0.3l0,0
		c0.1,0.2,0.3,0.3,0.5,0.4c0.1,0.1,0.2,0.2,0.3,0.3c0.5,0.5,0.9,1.1,1.6,1.4c0.4,0.2,0.7,0.5,1.1,0.7c0.2,0.1,0.5,0.1,0.6,0.3l0,0
		c0.1,0.3,0.2,0.6,0.3,0.8C58.9,48,58.8,48.1,58.7,48.2z"/>
	<path class="st95" d="M58.7,47.1c-0.3,0-0.5-0.1-0.6-0.3C58.4,46.7,58.6,46.8,58.7,47.1z"/>
	<path class="st5" d="M27.1,14.9c0.1,0.1,0.2,0.2,0.3,0.3c0,0.3-0.1,0.6-0.5,0.5c-0.1,0-0.3-0.2-0.3-0.3C26.5,15,26.8,15,27.1,14.9z
		"/>
	<path class="st142" d="M38.8,47.5c0-0.1,0-0.1,0-0.2c0.4,0,0.9,0.1,1.3-0.1c0.6-0.4,1.1-0.8,0.2-1.4c-0.1-0.1-0.2-0.2-0.3-0.3
		c0.2-0.3,0.5-0.4,0.7-0.5c0.9-0.2,1.8,0.3,2.7-0.2c0.1,0,0.3,0,0.4,0c0.7,0.4,0.9,0.9,0.4,1.6c-0.1,0.2-0.2,0.4-0.3,0.7
		c-0.1,0.1-0.2,0.2-0.3,0.3c-0.3,0.2-0.5,0.3-0.8,0.5c-0.4,0.1-0.7,0.1-1.1-0.1c-0.4-0.2-0.8-0.3-1.2-0.1l0,0
		c-0.4,0.5-1,0.1-1.5,0.2C39,47.8,38.9,47.7,38.8,47.5z"/>
	<path class="st71" d="M40.7,45.3c-0.2,0.2-0.4,0.3-0.6,0.3c-0.4,0.1-0.8,0.2-1.2,0.2c-0.1-0.3,0.1-0.4,0.4-0.5
		c0.2,0,0.4-0.1,0.6-0.1C40.1,45.1,40.4,45,40.7,45.3z"/>
	<path class="st143" d="M39.2,45.3c-0.1,0.2-0.2,0.3-0.4,0.5c-0.2,0-0.4,0-0.5,0c0-0.1,0-0.2,0-0.3c0.1-0.3,0.2-0.6,0.3-0.9
		C38.8,44.8,39,45,39.2,45.3z"/>
	<path class="st91" d="M47.3,34.7c0,0.2,0,0.4,0,0.6c0.3,0.3-0.1,0.9,0.3,1.2l0,0c0.2,0.4,0.4,0.9-0.1,1.3c-1.3-0.1-1.4-1.3-1.9-2.1
		c0.2-0.6-0.3-1.4,0.4-1.8c0.4,0.2,0.1,1.1,0.6,1c0.5-0.1,0.2-0.7,0.3-1.2c0-0.2,0-0.5,0-0.7c0.1,0.2,0.2,0.4,0.3,0.6
		C47.5,33.9,47.5,34.3,47.3,34.7z"/>
	<path class="st111" d="M46.1,33.8c0,0.7,0,1.4,0,2.1c-0.1,0.1-0.2,0.2-0.3,0.2c-0.3-0.1-0.7-0.2-1-0.3c-0.1-0.1-0.2-0.2-0.3-0.3
		c0-0.1,0-0.3,0.1-0.4c0.3-0.1,1,0.2,0.5-0.6c-0.2-0.3-0.5-0.5-0.5-0.9C45.1,33.5,45.7,33.3,46.1,33.8z"/>
	<path class="st144" d="M50.5,26.5c-0.7,0.2-1.1,1-1.9,1.1c-0.4,0.1-0.5,0.6-0.5,1c-0.2,0.2-0.4,0.4-0.6,0.6c-0.8,0.2-1-0.6-1.4-0.9
		c-0.1-0.5,0.2-0.9,0.3-1.4c0.1-0.1,0.2-0.2,0.3-0.3c0.1-0.1,0.2-0.2,0.3-0.3c1-0.4,2.1-0.4,3.2-0.4C50.7,26,50.8,26.2,50.5,26.5z"
		/>
	<path class="st23" d="M38.2,48.2c-0.7,0-1.4,0.1-2.1,0.3c-0.1,0.2-0.2,0.2-0.3,0c0-0.1,0-0.2,0-0.3c0.9-0.5,2-0.6,3-0.7l0.1,0.1
		c0.1,0,0.1,0.1,0.2,0.1c-0.1,0-0.2,0.1-0.2,0.1l0,0C38.7,48.1,38.4,48,38.2,48.2z"/>
	<path class="st135" d="M45.8,35.9c0.1,0,0.2,0,0.3-0.1c0.4-0.2,0.9-0.3,0.9,0.4c0.1,0.5,0.2,1,0.3,1.4c0,0.1,0,0.1,0,0.2
		c-0.1,0.3-0.2,0.5-0.3,0.7l0,0c-0.3,0.2-0.1,0.5-0.2,0.7c-0.2,0.4-0.5,0.7-0.8,0.9c-0.4,0.3-0.8,0.3-1.1-0.1
		c-0.1-0.1-0.1-0.2-0.2-0.4c-0.1-0.5-0.5-0.8-0.8-1.2l0,0c0.4-0.5,0.8-1,1.2-1.5c0-0.1,0-0.1,0-0.2c-0.1-0.2-0.1-0.4,0-0.6
		C45.3,36,45.5,35.9,45.8,35.9z"/>
	<path class="st145" d="M44.6,35.3c0.1,0,0.2,0,0.2,0.1c0.5,0.2,0.7,0.5,0.5,1c-0.1,0.3-0.2,0.5-0.5,0.7c-0.8,0.8-1.4-0.1-2-0.3
		c0-0.1,0-0.1-0.1-0.2c-0.2-0.4-0.5-0.7-0.8-0.9c0-0.1,0-0.2,0-0.3c0.2-0.2,0.1-0.4,0.2-0.6c0.2-0.2,0.4-0.4,0.7-0.4
		c0.1,0,0.2,0,0.3,0c0.2,0.1,0.3,0.1,0.5,0.1c0.1,0,0.2,0,0.3,0.1c0.1,0.1,0.2,0.2,0.2,0.2c0,0.1,0.1,0.2,0.2,0.2l0,0
		C44.4,35.1,44.5,35.2,44.6,35.3z"/>
	<path class="st146" d="M44.9,37.1c0-0.2,0.1-0.4,0.3-0.6c0.1,0,0.1,0.1,0.2,0.1c0,0.2,0,0.4-0.1,0.5l0,0
		C45.1,37.1,45,37.1,44.9,37.1z"/>
	<path class="st82" d="M40.7,50c0.6-0.6,1.1-0.1,1.5,0.3c-0.2,0-0.4,0-0.6,0c-0.1,0-0.2,0-0.3-0.1C41.1,50.2,40.9,50.1,40.7,50z"/>
	<path class="st82" d="M35.8,48.5c0.1,0,0.2,0,0.3,0c-0.1,0.2-0.3,0.3-0.6,0.3c0-0.1,0-0.2,0-0.3C35.7,48.5,35.7,48.5,35.8,48.5z"/>
	<path class="st82" d="M35.6,48.8c-0.1,0.2-0.2,0.2-0.3,0.3C35.3,49,35.4,48.9,35.6,48.8z"/>
	<path class="st109" d="M49.1,38.9c-0.1,0.7-0.4,1.3-0.8,1.8c-0.2-0.2-0.2-0.4,0-0.6c0-0.5,0.2-0.9,0.6-1.2
		C48.9,38.9,49,38.9,49.1,38.9z"/>
	<path class="st82" d="M37.9,50.3c0.9-0.6,1.8-0.1,2.7-0.2c0,0.1,0,0.2,0,0.3C39.7,50.3,38.8,50.3,37.9,50.3z"/>
	<path class="st111" d="M43.1,34.1c0.5,0.1,1.1-0.1,1.2,0.6c-0.1,0.1-0.2,0.1-0.3,0l0,0c-0.1-0.1-0.3-0.1-0.5-0.1
		c-0.2,0-0.3,0-0.4-0.2l0,0C42.9,34.4,42.8,34.3,43.1,34.1L43.1,34.1z"/>
	<path class="st108" d="M44,34.7c0.1,0,0.2,0,0.3,0c0,0.1,0,0.2,0,0.3C44.2,34.9,44.1,34.8,44,34.7z"/>
	<path class="st108" d="M44.6,35.3c-0.2-0.1-0.3-0.2-0.3-0.3c0.1,0,0.2,0,0.3,0C44.6,35.1,44.6,35.2,44.6,35.3z"/>
	<path class="st147" d="M38,43.1c0.5,0,1,0,1.5,0c1.1,0,2.2,0,3.3,0c0,0-0.1,0.1-0.1,0.1C41.1,43.5,39.5,43.7,38,43.1z"/>
	<path class="st70" d="M44,38.6c0.5,0.2,0.9,0.6,0.9,1.2c-0.1,0.1-0.2,0.1-0.3,0c-0.2-0.3-0.4-0.6-0.7-0.9C44,38.8,44,38.7,44,38.6z
		"/>
	<path class="st118" d="M54.2,43.7c-0.3,0-0.5-0.1-0.6-0.3C53.9,43.4,54.1,43.5,54.2,43.7z"/>
	<path class="st118" d="M54.5,44c-0.2,0-0.3-0.1-0.3-0.3C54.4,43.7,54.5,43.8,54.5,44z"/>
	<path class="st108" d="M42.2,34.7c0,0.2-0.1,0.4-0.3,0.6c0-0.3,0-0.6,0-0.9c0.1,0,0.2-0.1,0.3-0.1C42.3,34.5,42.3,34.6,42.2,34.7z"
		/>
	<path class="st125" d="M19.3,21.2c-0.4,0.4-1,0.2-1.5,0.3c0-0.1,0-0.2,0-0.3C18.3,21.2,18.8,21.2,19.3,21.2z"/>
	<path class="st4" d="M49.4,22.4c-0.2,0-0.3-0.1-0.4-0.2C49.2,22.2,49.3,22.3,49.4,22.4z"/>
	<path class="st148" d="M42.2,34.7c0-0.1,0-0.3-0.1-0.4c0.3-0.3,0.6-0.2,0.9-0.2c0,0.1,0,0.2,0,0.3C42.8,34.5,42.5,34.6,42.2,34.7z"
		/>
	<path class="st124" d="M49.1,35.4c-0.3,0-0.6-0.1-0.9-0.4c0-0.4,0-0.8,0-1.2c0.1,0,0.2,0,0.2,0.1c0.1,0.3,0.1,0.6,0.3,0.9
		c0.1,0.1,0.2,0.2,0.3,0.3C49,35.2,49.1,35.3,49.1,35.4z"/>
	<path class="st9" d="M16.6,29c0-0.2,0-0.4,0-0.5c0-0.2,0.2-0.2,0.3-0.3l0,0c0.1-0.1,0.2-0.2,0.3-0.3c0.1-0.3,0.2-0.6,0.3-0.9
		c0.3-0.1,0.5-0.3,0.8-0.3c0.6,0,1.4-0.4,1.7,0.3c0.3,0.7-0.7,0.8-1,1.2c-0.2,0.4-0.6,0.4-0.9,0.6l0,0c-0.4,0.3-0.9,0-1.2,0.3l0,0
		C16.8,29.1,16.7,29.1,16.6,29z"/>
	<path class="st39" d="M21.1,26.3c0.4,0,0.6,0.2,0.6,0.6C21.3,26.9,21.1,26.7,21.1,26.3z"/>
	<path class="st44" d="M18.1,28.7c0.2-0.3,0.6-0.5,0.9-0.6c0,0.1,0,0.2,0,0.3C18.7,28.7,18.4,28.7,18.1,28.7z"/>
	<path class="st125" d="M19,23c0.1-0.2,0.4-0.3,0.6-0.3c-0.1,0.1-0.2,0.2-0.3,0.3C19.2,23,19.1,23,19,23z"/>
	<path class="st125" d="M18.7,23.3c0.1-0.1,0.2-0.2,0.3-0.3C18.9,23.1,18.8,23.2,18.7,23.3z"/>
	<path class="st125" d="M17.5,23.6c0.1-0.1,0.2-0.2,0.3-0.3C17.7,23.4,17.6,23.5,17.5,23.6z"/>
	<path class="st44" d="M16.9,28.1c-0.1,0.1-0.2,0.2-0.3,0.3c-0.8,0-1.6,0-2.4,0C15,27.8,16,28.3,16.9,28.1z"/>
	<path class="st44" d="M17.2,27.8c-0.1,0.1-0.2,0.2-0.3,0.3C17,28,17.1,27.9,17.2,27.8z"/>
	<path class="st124" d="M47.3,34.7c0-0.4,0-0.8,0-1.2C47.7,33.9,47.7,34.3,47.3,34.7z"/>
	<path class="st124" d="M47.6,36.5c-0.4-0.3-0.3-0.8-0.3-1.2c0.1,0,0.2,0,0.3,0C47.6,35.7,47.6,36.1,47.6,36.5z"/>
	<path class="st78" d="M46.4,43.7c-0.6,0-1,0.3-1.5,0.6c-0.1,0.1-0.3,0.2-0.5,0.2c-0.1,0-0.2-0.1-0.2-0.3c0.3-0.2,0.6-0.5,1-0.6
		c1.1-0.3,1.7-1.1,2.2-2.1c0.1-0.2,0.3-0.4,0.4-0.6c0.2,0,0.2,0.2,0.2,0.3c0,0.2-0.1,0.5-0.1,0.7C47.9,43,47.4,43.6,46.4,43.7z"/>
	<path class="st143" d="M40.7,45.3c-0.3,0-0.6,0-0.9-0.1c0.7-0.4,1.4-0.7,2.2-0.4c0.6,0.2,1.1-0.2,1.7-0.2c0.1,0.1,0.1,0.1,0.1,0.2
		c0,0.1-0.1,0.1-0.1,0.1C42.7,45.5,41.7,45,40.7,45.3z"/>
	<path class="st124" d="M47.3,37.7c0.4-0.3,0.2-0.8,0.3-1.2c0.6,0.7,1,1.4-0.3,1.8C47.1,38.1,47.1,37.9,47.3,37.7L47.3,37.7z"/>
	<path class="st89" d="M46.1,40.1c0.2-0.3,0.4-0.6,0.6-0.9c0.1-0.2,0.1-0.3,0.3,0c0,0.6-0.4,0.9-0.8,1.3c-0.1,0-0.1-0.1-0.2-0.1
		C45.9,40.3,46,40.2,46.1,40.1z"/>
	<path class="st89" d="M46.1,40.5c-0.3,0.7-0.7,0.8-1.3,0.3c0-0.1,0.1-0.1,0.1-0.2C45.3,40.4,45.7,40.3,46.1,40.5L46.1,40.5z"/>
	<path class="st78" d="M48.2,40.1c0,0.2,0,0.4,0,0.6c0,0.1-0.1,0.2-0.1,0.2c0,0.1-0.1,0.2-0.1,0.2C48,41.2,48,41.1,47.9,41
		c0,0-0.1-0.1-0.1-0.1C47.9,40.6,47.9,40.3,48.2,40.1z"/>
	<path class="st89" d="M44.6,39.8c0.1,0,0.2,0,0.3,0l0,0c0.2,0.3,0.3,0.5,0.1,0.8l-0.1,0.1C44.6,40.5,44.6,40.1,44.6,39.8z"/>
	<path class="st91" d="M47.3,37.7c0,0.2,0,0.4,0,0.6c-0.1,0.1-0.2,0.2-0.3,0.3C47,38.3,47,38,47.3,37.7z"/>
	<path class="st91" d="M47,39.2c-0.1,0-0.2,0-0.3,0c0-0.3,0.1-0.5,0.3-0.6C47,38.8,47,39,47,39.2z"/>
	<path class="st78" d="M43.7,44.9c0-0.1,0-0.2,0-0.3c0.1,0,0.1-0.1,0.2-0.1c0.1,0,0.1,0,0.2,0.1c0,0.1,0,0.1,0,0.2
		c0,0-0.1,0.1-0.1,0.1C43.9,44.9,43.8,44.9,43.7,44.9z"/>
	<path class="st78" d="M43.9,44.5c0.1-0.1,0.2-0.2,0.3-0.3c0,0,0.1,0.1,0.1,0.1c0.1,0.1,0.1,0.2,0,0.3
		C44.2,44.8,44.1,44.7,43.9,44.5L43.9,44.5z"/>
	<path class="st66" d="M14.2,29.9c0.6-0.5,1.4-0.6,2.1-0.6c-0.2,0.1-0.4,0.2-0.6,0.3c-0.1,0.1-0.2,0.1-0.3,0.2
		c-0.3,0-0.6,0.1-0.8,0.1C14.4,29.9,14.3,29.9,14.2,29.9z"/>
	<path class="st44" d="M16.9,29c0.3-0.4,0.8-0.3,1.2-0.3C17.7,29.1,17.3,29,16.9,29z"/>
	<path class="st44" d="M16.6,29c0.1,0,0.2,0,0.3,0c-0.1,0.2-0.3,0.3-0.6,0.3C16.4,29.2,16.5,29.1,16.6,29z"/>
	<path class="st114" d="M15.3,29.9c0.1-0.1,0.2-0.1,0.3-0.2C15.6,29.7,15.5,29.8,15.3,29.9z"/>
	<path class="st53" d="M55.8,47c0.6,0.1,1,0.6,1.5,0.9c-0.1,0.3-0.2,0.7-0.6,0.5c-0.9-0.3-1.8-0.1-2.7-0.3c-0.7-0.2-1.2,0-1.6,0.5
		c-0.3,0.4-0.7,0.5-1.2,0.5l0,0c-0.9-1.3-1.9-1.6-3.5-1.2c-0.5,0.1-0.9,0.4-1.4,0.5c-0.1,0-0.3,0-0.4-0.1c-0.1-0.1-0.2-0.1-0.3-0.2
		c-0.1-0.1-0.2-0.2-0.2-0.3c0-0.1,0-0.1,0-0.2c0-0.1,0-0.1,0-0.2c0.1,0,0.1-0.1,0.2-0.1c0.3,0,0.6,0,0.9-0.2c0.7-0.6,1.5-1,2.6-0.8
		c1,0.1,2,0.3,2.9,0.2c0.9-0.1,1.3,0.6,1.7,1.2c0.6,0,1.2,0,1.8,0C55.9,47.6,55.8,47.3,55.8,47z"/>
	<path class="st149" d="M53.6,47.6c-0.5-0.1-1-0.8-1.6-0.2c-0.2,0.2-0.5,0.1-0.7-0.1c-1.2-1.2-2.5-0.9-3.9-0.5
		c-0.3,0.1-0.7,0.2-1,0.3c0.2-0.2,0.3-0.5,0.5-0.7c0.3-0.3,0.2-0.8,0.6-0.9c0.4-0.1,0.6,0.4,1,0.6c0.8,0.4,1.6,0.2,2.2-0.5
		c0.1-0.1,0.2-0.2,0.3-0.2c1.4-0.1,2,0.2,2.4,1.6C53.6,47.1,53.6,47.4,53.6,47.6z"/>
	<path class="st150" d="M44.3,44.6c0-0.1,0-0.2,0.1-0.2c0.2,0,0.4,0,0.5-0.1c-0.2,0.9-0.3,1.9,0.3,2.7c-0.5,0.5-1,0.5-1.5,0
		c-0.3-0.5-1.4,0-1.3-0.6c0.1-0.7,0.9-0.3,1.4-0.3c0.9-0.1,0.3-0.7,0.2-1.1l0,0C44.1,44.8,44.2,44.7,44.3,44.6z"/>
	<path class="st109" d="M47.9,41c0.1,0,0.2,0,0.3,0c0,0.2,0,0.5,0,0.7c0.2,1.9,0.1,2-1.9,2C47.3,43.1,47.7,42.1,47.9,41z"/>
	<path class="st53" d="M43.7,47c0.5,0,1,0,1.5,0c0.1,0.1,0.2,0.2,0.3,0.3l-0.1,0.1c-0.2,0.2-0.4,0.3-0.6,0.4c-0.2,0-0.3,0-0.5,0
		C44,47.7,43.6,47.6,43.7,47L43.7,47z"/>
	<path class="st53" d="M55.7,46.7c0.1,0.1,0.1,0.2,0.1,0.3c-0.1-0.1-0.2-0.2-0.4-0.2C55.5,46.7,55.6,46.7,55.7,46.7z"/>
	<path class="st82" d="M50.3,50.6c0.7-0.7,1.1-0.3,1.5,0.3C51.3,51,50.8,50.7,50.3,50.6z"/>
	<path class="st12" d="M44.6,47.3c0.1,0,0.2,0,0.3,0c0.2,0.2,0.4,0.1,0.6,0.3l0,0c0.1,0.1,0.2,0.2,0.3,0.3l0,0
		c0.1,0.1,0.2,0.2,0.3,0.3c0.6-0.3,1-1.1,1.9-0.7c0.4,0.2,0.7-0.3,1-0.5c0.3-0.3,0.9-0.4,1,0c0.3,0.8,1.2,1.2,1.2,2.1
		c-0.6-0.5-1.3-0.5-1.9-0.7c-1.5-0.5-3,0.7-4.4-0.2c-0.2-0.2-0.5-0.1-0.7-0.3C44.1,47.6,44.4,47.5,44.6,47.3z"/>
	<path class="st133" d="M44.3,47.9c0.2,0,0.5,0.1,0.6,0.3c-0.5,0-0.9,0.1-1.3,0.2c-0.8,0.2-1.7,0.4-2.2-0.6
		c-0.1-0.1-0.5-0.1-0.7-0.2c0.7-0.6,1.6-0.1,2.4-0.3C43.6,47.2,43.9,47.7,44.3,47.9z"/>
	<path class="st133" d="M38.9,47.9c0-0.1,0-0.2,0-0.2c0.6,0,1.2,0,1.8-0.1C40.2,48.6,39.5,47.8,38.9,47.9z"/>
	<path class="st133" d="M38.2,48.2c0.2-0.2,0.4-0.3,0.6-0.3C38.7,48.1,38.5,48.2,38.2,48.2z"/>
	<path class="st12" d="M44.3,47.9c-0.6,0.1-0.9-0.3-1.2-0.6c0.2-0.2,0.4-0.3,0.6-0.3c0.2,0.3,0.6,0.3,0.9,0.3
		C44.5,47.5,44.4,47.7,44.3,47.9z"/>
	<path class="st146" d="M45.2,36.5c0.1-0.4,0-0.8-0.3-1.1c0.5-0.1,0.9,0,1,0.6c-0.1,0.2-0.2,0.4-0.3,0.6c-0.1,0.1-0.1,0.2-0.3,0
		C45.2,36.5,45.2,36.5,45.2,36.5z"/>
	<path class="st70" d="M45,40.6c0-0.3,0-0.6-0.1-0.8c0.4,0.2,0.7,0.4,1.2,0.3c0,0.1,0,0.2,0,0.3C45.7,40.6,45.4,40.8,45,40.6z"/>
	<path class="st70" d="M45.3,36.6c0.1,0,0.2,0,0.3,0c0,0.2-0.1,0.5-0.3,0.6C45.2,36.9,45.2,36.8,45.3,36.6z"/>
	<path class="st148" d="M43.1,34.4c0.2,0,0.4,0,0.6,0c0.1,0.1,0.1,0.1,0.1,0.2c0,0.1-0.1,0.1-0.1,0.1C43.5,34.7,43.2,34.6,43.1,34.4
		z"/>
	<path class="st108" d="M43.7,34.7c0-0.1,0-0.2,0-0.3c0.1,0.1,0.2,0.2,0.3,0.3C43.9,34.7,43.8,34.7,43.7,34.7z"/>
	<path class="st142" d="M44.3,44.6c-0.1,0.1-0.2,0.2-0.3,0.3c0-0.1,0-0.2,0-0.3C44.1,44.6,44.2,44.6,44.3,44.6z"/>
	<path class="st12" d="M45.5,47.6c-0.2,0-0.4-0.1-0.6-0.3c0.2,0,0.4,0,0.5,0C45.5,47.4,45.5,47.5,45.5,47.6z"/>
	<path class="st12" d="M45.8,47.9c-0.1-0.1-0.2-0.2-0.3-0.3C45.6,47.7,45.7,47.8,45.8,47.9z"/>
	<path class="st12" d="M46.1,48.2c-0.1-0.1-0.2-0.2-0.3-0.3C45.9,48,46,48.1,46.1,48.2z"/>
</g>
</svg>
